<svg viewBox="0 0 126.35203999999999 103.7415" xmlns:xlink="http://www.w3.org/1999/xlink" xmlns="http://www.w3.org/2000/svg" data-name="Capa 2" id="Capa_2" style="max-height: 500px" width="126.35203999999999" height="103.7415">
  <defs>
    <style>
      .cls-1 {
        fill: url(#Degradado_sin_nombre_3);
      }

      .cls-1, .cls-2, .cls-3, .cls-4 {
        stroke-width: 0px;
      }

      .cls-2 {
        fill: url(#Degradado_sin_nombre_3-3);
      }

      .cls-3 {
        fill: url(#Degradado_sin_nombre_3-2);
      }

      .cls-4 {
        fill: #222221;
      }
    </style>
    <linearGradient gradientUnits="userSpaceOnUse" y2="107.65" x2="108.64" y1="4.69" x1="-23.14" data-name="Degradado sin nombre 3" id="Degradado_sin_nombre_3">
      <stop stop-color="#44cfe2" offset="0"/>
      <stop stop-color="#5fc5ce" offset=".5"/>
      <stop stop-color="#532ece" offset=".69"/>
      <stop stop-color="#532ece" offset="1"/>
    </linearGradient>
    <linearGradient xlink:href="#Degradado_sin_nombre_3" y2="98.27" x2="116.23" y1="-4.64" x1="-15.49" data-name="Degradado sin nombre 3" id="Degradado_sin_nombre_3-2"/>
    <linearGradient xlink:href="#Degradado_sin_nombre_3" y2="87.37" x2="125.12" y1="-15.59" x1="-6.66" data-name="Degradado sin nombre 3" id="Degradado_sin_nombre_3-3"/>
  </defs>
  <g data-name="Capa 1" id="Capa_1-2">
    <g>
      <g>
        <g>
          <path d="m151.91,70.65l8.54-4.72c2.81,5.51,7.3,7.53,13.37,7.53s11.13-2.58,11.13-7.42c0-11.57-31.58-2.81-31.58-23.82,0-9.66,8.54-16.74,20.56-16.74,10.23,0,17.19,4.72,20.68,11.13l-8.54,4.83c-2.36-4.83-6.86-6.52-11.91-6.52s-9.66,2.7-9.66,7.08c0,11.24,31.58,3.03,31.58,23.82,0,10.45-10.11,17.08-21.8,17.08-10.23,0-18.09-4.04-22.36-12.25Z" class="cls-4"/>
          <path d="m203.16,54.02c0-15.84,12.92-28.77,29.44-28.77s29.22,13.04,29.22,28.77-12.7,28.99-29.22,28.99-29.44-13.03-29.44-28.99Zm47.53.11c0-10.11-7.87-18.43-18.09-18.43s-18.32,8.32-18.32,18.43,7.98,18.32,18.32,18.32,18.09-8.32,18.09-18.32Z" class="cls-4"/>
          <path d="m271.48,106.95v-52.93c0-16.41,12.7-28.77,29.33-28.77s29.22,13.04,29.22,28.77c0,16.63-12.02,28.99-28.77,28.99-7.42,0-14.16-3.26-18.65-8.2v32.14h-11.13Zm47.42-52.82c0-10.11-7.87-18.32-18.09-18.32s-18.2,8.2-18.2,18.32,7.87,18.43,18.2,18.43,18.09-8.43,18.09-18.43Z" class="cls-4"/>
          <path d="m340.3,81.66V0h11.13v32.78c4.27-4.61,10.9-7.53,18.32-7.53,16.18,0,25.28,10.79,25.28,27.64v28.77h-11.12v-27.64c0-9.78-5.39-18.2-15.85-18.2-9.78,0-16.63,7.87-16.63,18.54v27.31h-11.13Z" class="cls-4"/>
          <path d="m408.39,7.66c0-4.18,3.36-7.66,7.54-7.66s7.43,3.48,7.43,7.66-3.25,7.54-7.43,7.54-7.54-3.36-7.54-7.54Zm13.05,18.94v55.06h-11.13V26.6h11.13Z" class="cls-4"/>
          <path d="m431.48,54.02c0-15.73,12.59-28.77,29.33-28.77s29.33,12.36,29.33,28.77v27.64h-10.56v-9.66c-4.16,6.74-11.46,11.01-20.45,11.01-15.96,0-27.64-13.03-27.64-28.99Zm47.53.11c0-10.11-7.87-18.43-18.2-18.43s-18.2,8.32-18.2,18.43,7.98,18.32,18.2,18.32,18.2-8.32,18.2-18.32Z" class="cls-4"/>
        </g>
        <g>
          <path d="m506.79,22.96h9.06v5.17h-9.82c-3.47,0-4.87-1.83-4.87-4.71V7.6h5.63v15.36Z" class="cls-4"/>
          <path d="m535.39,12.77h-5.81v15.36h-5.63v-15.36h-5.81v-5.17h17.25v5.17Z" class="cls-4"/>
        </g>
      </g>
      <g>
        <path d="m23.34,88.08c-1.65,0-3.29-.17-4.91-.5-8.19-1.7-14.82-7.77-17.32-15.84-3.09-10,.3-21.09,9.3-30.42L42.56,9.14c2.28-2.28,5.97-2.28,8.25,0,2.28,2.28,2.28,5.97,0,8.25L18.74,49.49c-5.89,6.11-8.28,12.99-6.48,18.81,1.26,4.07,4.45,7.01,8.54,7.86,6.01,1.25,12.93-2.1,19-9.17,2.1-2.45,5.78-2.73,8.22-.63,2.45,2.1,2.73,5.78.63,8.22-7.51,8.76-16.52,13.5-25.32,13.5Z" class="cls-1"/>
        <circle r="7.59" cy="54.7" cx="60.46" class="cls-3"/>
        <path d="m76.18,100.95c-1.49,0-2.98-.57-4.12-1.71-2.28-2.28-2.28-5.97,0-8.25l32.07-32.11c5.89-6.11,8.28-12.99,6.48-18.81-1.26-4.07-4.45-7.01-8.54-7.86-6-1.25-12.93,2.1-19,9.17-2.1,2.45-5.78,2.73-8.22.63-2.45-2.1-2.73-5.78-.63-8.22,8.92-10.4,19.94-15.14,30.23-13,8.19,1.7,14.82,7.77,17.32,15.84,3.09,10-.3,21.09-9.3,30.42l-32.14,32.18c-1.14,1.14-2.63,1.71-4.13,1.71Z" class="cls-2"/>
      </g>
    </g>
  </g>
</svg>