<svg version="1.1" viewBox="0.0 0.0 600.0 371.0" fill="none" stroke="none" stroke-linecap="square" stroke-miterlimit="10" width="600" height="371" xmlns:xlink="http://www.w3.org/1999/xlink" xmlns="http://www.w3.org/2000/svg"><path fill="#ffffff" d="M0 0L600.0 0L600.0 371.0L0 371.0L0 0Z" fill-rule="nonzero"/><path fill="#4285f4" d="M300.0 18.55C376.0541 18.55 442.49615 69.951836 461.5983 143.56798L300.0 185.5Z" fill-rule="nonzero"/><path fill="#ea4335" d="M461.5983 143.56798C479.53177 212.6803 451.52905 285.54684 391.92673 324.86203C332.3244 364.17725 254.31773 361.23718 197.84387 317.54706C141.37001 273.85696 118.931625 199.08928 142.01653 131.52295C165.10141 63.956604 228.59886 18.55 300.0 18.55L300.0 185.5Z" fill-rule="nonzero"/><path fill="#1a1a1a" d="M23.378124 306.4447L23.378124 305.66345Q22.784374 306.58533 21.64375 306.58533Q20.89375 306.58533 20.26875 306.17908Q19.64375 305.7572 19.3 305.02283Q18.95625 304.28845 18.95625 303.33533Q18.95625 302.41345 19.26875 301.64783Q19.58125 300.8822 20.20625 300.49158Q20.83125 300.08533 21.596874 300.08533Q22.159374 300.08533 22.596874 300.3197Q23.034374 300.55408 23.315624 300.92908L23.315624 297.85095L24.3625 297.85095L24.3625 306.4447L23.378124 306.4447ZM20.05 303.33533Q20.05 304.53845 20.55 305.1322Q21.05 305.71033 21.7375 305.71033Q22.425 305.71033 22.909374 305.14783Q23.39375 304.58533 23.39375 303.42908Q23.39375 302.14783 22.89375 301.55408Q22.409374 300.96033 21.690624 300.96033Q20.9875 300.96033 20.51875 301.53845Q20.05 302.10095 20.05 303.33533ZM30.409374 305.67908Q29.815624 306.17908 29.26875 306.3822Q28.7375 306.58533 28.1125 306.58533Q27.08125 306.58533 26.534374 306.08533Q25.9875 305.58533 25.9875 304.80408Q25.9875 304.35095 26.190624 303.97595Q26.39375 303.58533 26.7375 303.36658Q27.08125 303.1322 27.503124 303.02283Q27.8 302.92908 28.440624 302.85095Q29.70625 302.71033 30.315624 302.49158Q30.315624 302.27283 30.315624 302.22595Q30.315624 301.5697 30.01875 301.30408Q29.6125 300.96033 28.815624 300.96033Q28.08125 300.96033 27.721874 301.22595Q27.3625 301.47595 27.190624 302.1322L26.159374 301.99158Q26.3 301.33533 26.628124 300.92908Q26.95625 300.52283 27.565624 300.30408Q28.175 300.08533 28.971874 300.08533Q29.76875 300.08533 30.26875 300.27283Q30.76875 300.46033 31.003124 300.74158Q31.2375 301.02283 31.33125 301.46033Q31.378124 301.72595 31.378124 302.42908L31.378124 303.83533Q31.378124 305.30408 31.440624 305.6947Q31.51875 306.08533 31.721874 306.4447L30.6125 306.4447Q30.45625 306.11658 30.409374 305.67908ZM30.315624 303.3197Q29.7375 303.55408 28.596874 303.72595Q27.940624 303.8197 27.675 303.9447Q27.409374 304.05408 27.253124 304.27283Q27.1125 304.49158 27.1125 304.77283Q27.1125 305.1947 27.425 305.47595Q27.753124 305.7572 28.3625 305.7572Q28.971874 305.7572 29.440624 305.49158Q29.925 305.22595 30.14375 304.7572Q30.315624 304.39783 30.315624 303.71033L30.315624 303.3197ZM35.64375 305.5072L35.8 306.42908Q35.346874 306.52283 35.003124 306.52283Q34.425 306.52283 34.1125 306.35095Q33.8 306.16345 33.659374 305.86658Q33.534374 305.5697 33.534374 304.61658L33.534374 301.03845L32.76875 301.03845L32.76875 300.22595L33.534374 300.22595L33.534374 298.67908L34.58125 298.05408L34.58125 300.22595L35.64375 300.22595L35.64375 301.03845L34.58125 301.03845L34.58125 304.67908Q34.58125 305.1322 34.628124 305.2572Q34.690624 305.3822 34.815624 305.46033Q34.940624 305.53845 35.175 305.53845Q35.3625 305.53845 35.64375 305.5072ZM35.95625 303.33533Q35.95625 301.60095 36.909374 300.77283Q37.70625 300.08533 38.8625 300.08533Q40.14375 300.08533 40.95625 300.92908Q41.784374 301.7572 41.784374 303.24158Q41.784374 304.4447 41.425 305.1322Q41.065624 305.8197 40.3625 306.21033Q39.675 306.58533 38.8625 306.58533Q37.565624 306.58533 36.753124 305.7572Q35.95625 304.91345 35.95625 303.33533ZM37.034374 303.33533Q37.034374 304.52283 37.55 305.11658Q38.08125 305.71033 38.8625 305.71033Q39.659374 305.71033 40.175 305.11658Q40.690624 304.52283 40.690624 303.30408Q40.690624 302.14783 40.159374 301.55408Q39.64375 300.96033 38.8625 300.96033Q38.08125 300.96033 37.55 301.55408Q37.034374 302.1322 37.034374 303.33533ZM48.596874 305.42908L48.596874 306.4447L42.909374 306.4447Q42.909374 306.0697 43.034374 305.71033Q43.253124 305.1322 43.721874 304.5697Q44.20625 304.0072 45.1125 303.27283Q46.51875 302.11658 47.003124 301.4447Q47.503124 300.77283 47.503124 300.17908Q47.503124 299.55408 47.05 299.1322Q46.596874 298.6947 45.878124 298.6947Q45.1125 298.6947 44.659374 299.14783Q44.20625 299.60095 44.190624 300.41345L43.1125 300.30408Q43.221874 299.08533 43.940624 298.46033Q44.675 297.8197 45.909374 297.8197Q47.14375 297.8197 47.8625 298.5072Q48.58125 299.1947 48.58125 300.21033Q48.58125 300.72595 48.3625 301.22595Q48.159374 301.71033 47.659374 302.27283Q47.175 302.8197 46.05 303.77283Q45.096874 304.5697 44.815624 304.86658Q44.55 305.14783 44.378124 305.42908L48.596874 305.42908Z" fill-rule="nonzero"/><path fill="#9e9e9e" d="M19.1125 315.97595L19.1125 314.96033L24.675 314.96033L24.675 315.78845Q23.8625 316.66345 23.05 318.11658Q22.253124 319.55408 21.815624 321.08533Q21.4875 322.16345 21.409374 323.4447L20.315624 323.4447Q20.33125 322.42908 20.70625 320.99158Q21.096874 319.55408 21.8 318.22595Q22.51875 316.89783 23.33125 315.97595L19.1125 315.97595ZM26.20625 321.46033L27.221874 321.36658Q27.346874 322.08533 27.70625 322.41345Q28.08125 322.72595 28.64375 322.72595Q29.128124 322.72595 29.4875 322.5072Q29.8625 322.27283 30.096874 321.91345Q30.33125 321.53845 30.4875 320.91345Q30.64375 320.27283 30.64375 319.61658Q30.64375 319.53845 30.64375 319.39783Q30.33125 319.89783 29.784374 320.22595Q29.2375 320.53845 28.596874 320.53845Q27.51875 320.53845 26.784374 319.77283Q26.05 318.99158 26.05 317.72595Q26.05 316.41345 26.815624 315.61658Q27.596874 314.8197 28.753124 314.8197Q29.58125 314.8197 30.26875 315.27283Q30.971874 315.72595 31.33125 316.5697Q31.690624 317.39783 31.690624 318.97595Q31.690624 320.61658 31.33125 321.60095Q30.9875 322.5697 30.26875 323.08533Q29.565624 323.58533 28.628124 323.58533Q27.6125 323.58533 26.971874 323.03845Q26.33125 322.47595 26.20625 321.46033ZM30.51875 317.66345Q30.51875 316.7572 30.034374 316.22595Q29.565624 315.6947 28.878124 315.6947Q28.175 315.6947 27.64375 316.27283Q27.128124 316.83533 27.128124 317.7572Q27.128124 318.5697 27.628124 319.08533Q28.128124 319.60095 28.846874 319.60095Q29.58125 319.60095 30.05 319.08533Q30.51875 318.5697 30.51875 317.66345ZM33.6125 323.4447L33.6125 322.24158L34.815624 322.24158L34.815624 323.4447Q34.815624 324.10095 34.58125 324.5072Q34.346874 324.92908 33.846874 325.14783L33.55 324.6947Q33.878124 324.55408 34.034374 324.2572Q34.190624 323.97595 34.221874 323.4447L33.6125 323.4447ZM36.05 319.21033Q36.05 317.67908 36.3625 316.7572Q36.675 315.8197 37.284374 315.3197Q37.909374 314.8197 38.846874 314.8197Q39.534374 314.8197 40.05 315.10095Q40.58125 315.3822 40.925 315.91345Q41.26875 316.42908 41.45625 317.17908Q41.64375 317.92908 41.64375 319.21033Q41.64375 320.72595 41.33125 321.64783Q41.034374 322.5697 40.409374 323.08533Q39.8 323.58533 38.846874 323.58533Q37.6125 323.58533 36.89375 322.6947Q36.05 321.6322 36.05 319.21033ZM37.128124 319.21033Q37.128124 321.3197 37.628124 322.02283Q38.128124 322.72595 38.846874 322.72595Q39.58125 322.72595 40.065624 322.02283Q40.565624 321.3197 40.565624 319.21033Q40.565624 317.08533 40.065624 316.39783Q39.58125 315.6947 38.83125 315.6947Q38.1125 315.6947 37.675 316.30408Q37.128124 317.08533 37.128124 319.21033ZM43.253124 316.91345Q43.253124 315.99158 43.70625 315.35095Q44.175 314.71033 45.05 314.71033Q45.8625 314.71033 46.39375 315.28845Q46.925 315.86658 46.925 316.97595Q46.925 318.0697 46.378124 318.66345Q45.846874 319.24158 45.065624 319.24158Q44.284374 319.24158 43.76875 318.66345Q43.253124 318.08533 43.253124 316.91345ZM45.08125 315.42908Q44.690624 315.42908 44.425 315.77283Q44.175 316.11658 44.175 317.02283Q44.175 317.85095 44.425 318.1947Q44.690624 318.52283 45.08125 318.52283Q45.4875 318.52283 45.7375 318.17908Q46.003124 317.83533 46.003124 316.9447Q46.003124 316.10095 45.7375 315.77283Q45.471874 315.42908 45.08125 315.42908ZM45.08125 323.7572L49.784374 314.71033L50.64375 314.71033L45.95625 323.7572L45.08125 323.7572ZM48.8 321.42908Q48.8 320.5072 49.253124 319.86658Q49.721874 319.22595 50.6125 319.22595Q51.425 319.22595 51.95625 319.80408Q52.4875 320.36658 52.4875 321.49158Q52.4875 322.58533 51.940624 323.17908Q51.409374 323.7572 50.6125 323.7572Q49.846874 323.7572 49.315624 323.17908Q48.8 322.60095 48.8 321.42908ZM50.64375 319.9447Q50.2375 319.9447 49.971874 320.28845Q49.721874 320.6322 49.721874 321.53845Q49.721874 322.35095 49.9875 322.6947Q50.253124 323.03845 50.64375 323.03845Q51.034374 323.03845 51.3 322.6947Q51.565624 322.35095 51.565624 321.4447Q51.565624 320.61658 51.3 320.28845Q51.034374 319.9447 50.64375 319.9447Z" fill-rule="nonzero"/><path stroke="#757575" stroke-width="1.0" stroke-linecap="butt" d="M18.55 310.9447L127.05 310.9447L202.95168 310.9447" fill-rule="nonzero"/><path fill="#9e9e9e" d="M204.95168 310.9447C204.95168 309.84015 204.05624 308.9447 202.95168 308.9447C201.8471 308.9447 200.95168 309.84015 200.95168 310.9447C200.95168 312.0493 201.8471 312.9447 202.95168 312.9447C204.05624 312.9447 204.95168 312.0493 204.95168 310.9447" fill-rule="nonzero"/><path fill="#1a1a1a" d="M555.27814 55.55529L555.27814 54.77404Q554.6844 55.695915 553.54376 55.695915Q552.79376 55.695915 552.16876 55.289665Q551.54376 54.86779 551.2 54.133415Q550.85626 53.39904 550.85626 52.445915Q550.85626 51.52404 551.16876 50.758415Q551.48126 49.99279 552.10626 49.602165Q552.73126 49.195915 553.4969 49.195915Q554.0594 49.195915 554.4969 49.43029Q554.9344 49.664665 555.21564 50.039665L555.21564 46.96154L556.2625 46.96154L556.2625 55.55529L555.27814 55.55529ZM551.95 52.445915Q551.95 53.64904 552.45 54.24279Q552.95 54.820915 553.6375 54.820915Q554.325 54.820915 554.8094 54.258415Q555.29376 53.695915 555.29376 52.539665Q555.29376 51.258415 554.79376 50.664665Q554.3094 50.070915 553.59064 50.070915Q552.8875 50.070915 552.41876 50.64904Q551.95 51.21154 551.95 52.445915ZM562.3094 54.789665Q561.71564 55.289665 561.16876 55.49279Q560.6375 55.695915 560.0125 55.695915Q558.98126 55.695915 558.4344 55.195915Q557.8875 54.695915 557.8875 53.914665Q557.8875 53.46154 558.09064 53.08654Q558.29376 52.695915 558.6375 52.477165Q558.98126 52.24279 559.40314 52.133415Q559.7 52.039665 560.34064 51.96154Q561.60626 51.820915 562.21564 51.602165Q562.21564 51.383415 562.21564 51.33654Q562.21564 50.68029 561.91876 50.414665Q561.5125 50.070915 560.71564 50.070915Q559.98126 50.070915 559.6219 50.33654Q559.2625 50.58654 559.09064 51.24279L558.0594 51.102165Q558.2 50.445915 558.52814 50.039665Q558.85626 49.633415 559.46564 49.414665Q560.075 49.195915 560.8719 49.195915Q561.66876 49.195915 562.16876 49.383415Q562.66876 49.570915 562.90314 49.852165Q563.1375 50.133415 563.23126 50.570915Q563.27814 50.83654 563.27814 51.539665L563.27814 52.945915Q563.27814 54.414665 563.34064 54.80529Q563.41876 55.195915 563.6219 55.55529L562.5125 55.55529Q562.35626 55.227165 562.3094 54.789665ZM562.21564 52.43029Q561.6375 52.664665 560.4969 52.83654Q559.84064 52.93029 559.575 53.05529Q559.3094 53.164665 559.15314 53.383415Q559.0125 53.602165 559.0125 53.883415Q559.0125 54.30529 559.325 54.58654Q559.65314 54.86779 560.2625 54.86779Q560.8719 54.86779 561.34064 54.602165Q561.825 54.33654 562.04376 53.86779Q562.21564 53.508415 562.21564 52.820915L562.21564 52.43029ZM567.54376 54.61779L567.7 55.539665Q567.2469 55.633415 566.90314 55.633415Q566.325 55.633415 566.0125 55.46154Q565.7 55.27404 565.5594 54.977165Q565.4344 54.68029 565.4344 53.727165L565.4344 50.14904L564.66876 50.14904L564.66876 49.33654L565.4344 49.33654L565.4344 47.789665L566.48126 47.164665L566.48126 49.33654L567.54376 49.33654L567.54376 50.14904L566.48126 50.14904L566.48126 53.789665Q566.48126 54.24279 566.52814 54.36779Q566.59064 54.49279 566.71564 54.570915Q566.84064 54.64904 567.075 54.64904Q567.2625 54.64904 567.54376 54.61779ZM567.85626 52.445915Q567.85626 50.71154 568.8094 49.883415Q569.60626 49.195915 570.7625 49.195915Q572.04376 49.195915 572.85626 50.039665Q573.6844 50.86779 573.6844 52.352165Q573.6844 53.55529 573.325 54.24279Q572.96564 54.93029 572.2625 55.320915Q571.575 55.695915 570.7625 55.695915Q569.46564 55.695915 568.65314 54.86779Q567.85626 54.02404 567.85626 52.445915ZM568.9344 52.445915Q568.9344 53.633415 569.45 54.227165Q569.98126 54.820915 570.7625 54.820915Q571.5594 54.820915 572.075 54.227165Q572.59064 53.633415 572.59064 52.414665Q572.59064 51.258415 572.0594 50.664665Q571.54376 50.070915 570.7625 50.070915Q569.98126 50.070915 569.45 50.664665Q568.9344 51.24279 568.9344 52.445915ZM578.91876 55.55529L577.8719 55.55529L577.8719 48.83654Q577.48126 49.195915 576.85626 49.570915Q576.2469 49.93029 575.7625 50.102165L575.7625 49.08654Q576.6375 48.664665 577.29376 48.08654Q577.96564 47.49279 578.2469 46.93029L578.91876 46.93029L578.91876 55.55529Z" fill-rule="nonzero"/><path fill="#9e9e9e" d="M552.4969 71.539665L552.4969 72.55529L546.8094 72.55529Q546.8094 72.18029 546.9344 71.820915Q547.15314 71.24279 547.6219 70.68029Q548.10626 70.11779 549.0125 69.383415Q550.41876 68.227165 550.90314 67.55529Q551.40314 66.883415 551.40314 66.289665Q551.40314 65.664665 550.95 65.24279Q550.4969 64.80529 549.77814 64.80529Q549.0125 64.80529 548.5594 65.258415Q548.10626 65.71154 548.09064 66.52404L547.0125 66.414665Q547.1219 65.195915 547.84064 64.570915Q548.575 63.93029 549.8094 63.93029Q551.04376 63.93029 551.7625 64.61779Q552.48126 65.30529 552.48126 66.320915Q552.48126 66.83654 552.2625 67.33654Q552.0594 67.820915 551.5594 68.383415Q551.075 68.93029 549.95 69.883415Q548.9969 70.68029 548.71564 70.977165Q548.45 71.258415 548.27814 71.539665L552.4969 71.539665ZM557.91876 72.55529L556.8719 72.55529L556.8719 65.83654Q556.48126 66.195915 555.85626 66.570915Q555.2469 66.93029 554.7625 67.102165L554.7625 66.08654Q555.6375 65.664665 556.29376 65.08654Q556.96564 64.49279 557.2469 63.93029L557.91876 63.93029L557.91876 72.55529ZM561.5125 72.55529L561.5125 71.352165L562.71564 71.352165L562.71564 72.55529Q562.71564 73.21154 562.48126 73.61779Q562.2469 74.039665 561.7469 74.258415L561.45 73.80529Q561.77814 73.664665 561.9344 73.36779Q562.09064 73.08654 562.1219 72.55529L561.5125 72.55529ZM563.95 68.320915Q563.95 66.789665 564.2625 65.86779Q564.575 64.93029 565.1844 64.43029Q565.8094 63.93029 566.7469 63.93029Q567.4344 63.93029 567.95 64.21154Q568.48126 64.49279 568.825 65.02404Q569.16876 65.539665 569.35626 66.289665Q569.54376 67.039665 569.54376 68.320915Q569.54376 69.83654 569.23126 70.758415Q568.9344 71.68029 568.3094 72.195915Q567.7 72.695915 566.7469 72.695915Q565.5125 72.695915 564.79376 71.80529Q563.95 70.74279 563.95 68.320915ZM565.02814 68.320915Q565.02814 70.43029 565.52814 71.133415Q566.02814 71.83654 566.7469 71.83654Q567.48126 71.83654 567.96564 71.133415Q568.46564 70.43029 568.46564 68.320915Q568.46564 66.195915 567.96564 65.508415Q567.48126 64.80529 566.73126 64.80529Q566.0125 64.80529 565.575 65.414665Q565.02814 66.195915 565.02814 68.320915ZM571.15314 66.02404Q571.15314 65.102165 571.60626 64.46154Q572.075 63.820915 572.95 63.820915Q573.7625 63.820915 574.29376 64.39904Q574.825 64.977165 574.825 66.08654Q574.825 67.18029 574.27814 67.77404Q573.7469 68.352165 572.96564 68.352165Q572.1844 68.352165 571.66876 67.77404Q571.15314 67.195915 571.15314 66.02404ZM572.98126 64.539665Q572.59064 64.539665 572.325 64.883415Q572.075 65.227165 572.075 66.133415Q572.075 66.96154 572.325 67.30529Q572.59064 67.633415 572.98126 67.633415Q573.3875 67.633415 573.6375 67.289665Q573.90314 66.945915 573.90314 66.05529Q573.90314 65.21154 573.6375 64.883415Q573.3719 64.539665 572.98126 64.539665ZM572.98126 72.86779L577.6844 63.820915L578.54376 63.820915L573.85626 72.86779L572.98126 72.86779ZM576.7 70.539665Q576.7 69.61779 577.15314 68.977165Q577.6219 68.33654 578.5125 68.33654Q579.325 68.33654 579.85626 68.914665Q580.3875 69.477165 580.3875 70.602165Q580.3875 71.695915 579.84064 72.289665Q579.3094 72.86779 578.5125 72.86779Q577.7469 72.86779 577.21564 72.289665Q576.7 71.71154 576.7 70.539665ZM578.54376 69.05529Q578.1375 69.05529 577.8719 69.39904Q577.6219 69.74279 577.6219 70.64904Q577.6219 71.46154 577.8875 71.80529Q578.15314 72.14904 578.54376 72.14904Q578.9344 72.14904 579.2 71.80529Q579.46564 71.46154 579.46564 70.55529Q579.46564 69.727165 579.2 69.39904Q578.9344 69.05529 578.54376 69.05529Z" fill-rule="nonzero"/><path stroke="#757575" stroke-width="1.0" stroke-linecap="butt" d="M581.45 60.05529L472.95 60.05529L397.04834 60.05529" fill-rule="nonzero"/><path fill="#9e9e9e" d="M399.04834 60.05529C399.04834 58.950718 398.1529 58.05529 397.04834 58.05529C395.94376 58.05529 395.04834 58.950718 395.04834 60.05529C395.04834 61.15986 395.94376 62.05529 397.04834 62.05529C398.1529 62.05529 399.04834 61.15986 399.04834 60.05529" fill-rule="nonzero"/></svg>