<svg version="1.1" viewBox="0.0 0.0 600.0 371.0" fill="none" stroke="none" stroke-linecap="square" stroke-miterlimit="10" width="600" height="371" xmlns:xlink="http://www.w3.org/1999/xlink" xmlns="http://www.w3.org/2000/svg"><path fill="#ffffff" d="M0 0L600.0 0L600.0 371.0L0 371.0L0 0Z" fill-rule="nonzero"/><path fill="#4285f4" d="M300.0 18.55C324.61176 18.55 348.9191 23.991602 371.1817 34.4852L300.0 185.5Z" fill-rule="nonzero"/><path fill="#ea4335" d="M371.1817 34.4852C423.50644 59.148777 459.33533 109.140785 465.8785 166.61565C472.42172 224.0905 448.74667 280.85672 403.30466 316.65048L300.0 185.5Z" fill-rule="nonzero"/><path fill="#fbbc04" d="M403.30466 316.65048C345.86002 361.8985 265.65442 364.49707 205.40135 323.06235C145.14828 281.6276 118.87207 205.8038 140.5661 135.97087C162.26013 66.13794 226.87497 18.55 300.0 18.55L300.0 185.5Z" fill-rule="nonzero"/><path fill="#1a1a1a" d="M23.596874 230.93263L24.690624 231.05763Q24.440624 232.01076 23.7375 232.542Q23.034374 233.07326 21.95625 233.07326Q20.596874 233.07326 19.784374 232.2295Q18.9875 231.38576 18.9875 229.87013Q18.9875 228.30763 19.8 227.44826Q20.6125 226.57326 21.89375 226.57326Q23.14375 226.57326 23.925 227.417Q24.721874 228.26076 24.721874 229.80763Q24.721874 229.90138 24.721874 230.08888L20.08125 230.08888Q20.14375 231.12013 20.659374 231.667Q21.175 232.19826 21.95625 232.19826Q22.534374 232.19826 22.940624 231.90138Q23.3625 231.58888 23.596874 230.93263ZM20.14375 229.2295L23.6125 229.2295Q23.55 228.43263 23.221874 228.042Q22.70625 227.43263 21.909374 227.43263Q21.175 227.43263 20.675 227.917Q20.190624 228.40138 20.14375 229.2295ZM30.409374 230.65138L31.440624 230.792Q31.26875 231.8545 30.565624 232.46388Q29.8625 233.07326 28.846874 233.07326Q27.565624 233.07326 26.784374 232.24513Q26.01875 231.40138 26.01875 229.83888Q26.01875 228.83888 26.346874 228.08888Q26.690624 227.32326 27.3625 226.94826Q28.05 226.57326 28.8625 226.57326Q29.8625 226.57326 30.503124 227.08888Q31.159374 227.58888 31.346874 228.542L30.315624 228.69826Q30.175 228.07326 29.8 227.76076Q29.425 227.43263 28.89375 227.43263Q28.096874 227.43263 27.596874 228.01076Q27.096874 228.57326 27.096874 229.80763Q27.096874 231.07326 27.58125 231.63576Q28.065624 232.19826 28.83125 232.19826Q29.45625 232.19826 29.8625 231.82326Q30.284374 231.44826 30.409374 230.65138ZM31.95625 229.82326Q31.95625 228.08888 32.909374 227.26076Q33.70625 226.57326 34.8625 226.57326Q36.14375 226.57326 36.95625 227.417Q37.784374 228.24513 37.784374 229.7295Q37.784374 230.93263 37.425 231.62013Q37.065624 232.30763 36.3625 232.69826Q35.675 233.07326 34.8625 233.07326Q33.565624 233.07326 32.753124 232.24513Q31.95625 231.40138 31.95625 229.82326ZM33.034374 229.82326Q33.034374 231.01076 33.55 231.6045Q34.08125 232.19826 34.8625 232.19826Q35.659374 232.19826 36.175 231.6045Q36.690624 231.01076 36.690624 229.792Q36.690624 228.63576 36.159374 228.042Q35.64375 227.44826 34.8625 227.44826Q34.08125 227.44826 33.55 228.042Q33.034374 228.62013 33.034374 229.82326ZM39.346874 232.93263L39.346874 226.71388L40.284374 226.71388L40.284374 227.58888Q40.971874 226.57326 42.26875 226.57326Q42.83125 226.57326 43.3 226.77638Q43.784374 226.9795 44.01875 227.30763Q44.253124 227.63576 44.346874 228.07326Q44.39375 228.37013 44.39375 229.1045L44.39375 232.93263L43.346874 232.93263L43.346874 229.15138Q43.346874 228.49513 43.221874 228.18263Q43.096874 227.87013 42.784374 227.68263Q42.471874 227.4795 42.05 227.4795Q41.378124 227.4795 40.878124 227.917Q40.39375 228.33888 40.39375 229.52638L40.39375 232.93263L39.346874 232.93263ZM45.95625 229.82326Q45.95625 228.08888 46.909374 227.26076Q47.70625 226.57326 48.8625 226.57326Q50.14375 226.57326 50.95625 227.417Q51.784374 228.24513 51.784374 229.7295Q51.784374 230.93263 51.425 231.62013Q51.065624 232.30763 50.3625 232.69826Q49.675 233.07326 48.8625 233.07326Q47.565624 233.07326 46.753124 232.24513Q45.95625 231.40138 45.95625 229.82326ZM47.034374 229.82326Q47.034374 231.01076 47.55 231.6045Q48.08125 232.19826 48.8625 232.19826Q49.659374 232.19826 50.175 231.6045Q50.690624 231.01076 50.690624 229.792Q50.690624 228.63576 50.159374 228.042Q49.64375 227.44826 48.8625 227.44826Q48.08125 227.44826 47.55 228.042Q47.034374 228.62013 47.034374 229.82326ZM53.346874 232.93263L53.346874 226.71388L54.284374 226.71388L54.284374 227.58888Q54.58125 227.12013 55.065624 226.8545Q55.55 226.57326 56.175 226.57326Q56.8625 226.57326 57.3 226.8545Q57.753124 227.13576 57.925 227.65138Q58.675 226.57326 59.846874 226.57326Q60.784374 226.57326 61.26875 227.08888Q61.76875 227.58888 61.76875 228.667L61.76875 232.93263L60.721874 232.93263L60.721874 229.01076Q60.721874 228.38576 60.6125 228.1045Q60.51875 227.82326 60.253124 227.65138Q59.9875 227.4795 59.6125 227.4795Q58.95625 227.4795 58.51875 227.917Q58.096874 228.3545 58.096874 229.32326L58.096874 232.93263L57.034374 232.93263L57.034374 228.88576Q57.034374 228.18263 56.76875 227.83888Q56.51875 227.4795 55.940624 227.4795Q55.4875 227.4795 55.1125 227.71388Q54.7375 227.94826 54.565624 228.40138Q54.39375 228.8545 54.39375 229.69826L54.39375 232.93263L53.346874 232.93263ZM64.34688 225.55763L64.34688 224.33888L65.40938 224.33888L65.40938 225.55763L64.34688 225.55763ZM64.34688 232.93263L64.34688 226.71388L65.40938 226.71388L65.40938 232.93263L64.34688 232.93263ZM71.40938 232.167Q70.81563 232.667 70.26875 232.87013Q69.7375 233.07326 69.1125 233.07326Q68.08125 233.07326 67.53438 232.57326Q66.9875 232.07326 66.9875 231.292Q66.9875 230.83888 67.19063 230.46388Q67.39375 230.07326 67.7375 229.8545Q68.08125 229.62013 68.50313 229.51076Q68.8 229.417 69.44063 229.33888Q70.70625 229.19826 71.31563 228.9795Q71.31563 228.76076 71.31563 228.71388Q71.31563 228.05763 71.01875 227.792Q70.6125 227.44826 69.81563 227.44826Q69.08125 227.44826 68.72188 227.71388Q68.3625 227.96388 68.19063 228.62013L67.15938 228.4795Q67.3 227.82326 67.62813 227.417Q67.95625 227.01076 68.56563 226.792Q69.175 226.57326 69.97188 226.57326Q70.76875 226.57326 71.26875 226.76076Q71.76875 226.94826 72.00313 227.2295Q72.2375 227.51076 72.33125 227.94826Q72.37813 228.21388 72.37813 228.917L72.37813 230.32326Q72.37813 231.792 72.44063 232.18263Q72.51875 232.57326 72.72188 232.93263L71.6125 232.93263Q71.45625 232.6045 71.40938 232.167ZM71.31563 229.80763Q70.7375 230.042 69.59688 230.21388Q68.94063 230.30763 68.675 230.43263Q68.40938 230.542 68.25313 230.76076Q68.1125 230.9795 68.1125 231.26076Q68.1125 231.68263 68.425 231.96388Q68.75313 232.24513 69.3625 232.24513Q69.97188 232.24513 70.44063 231.9795Q70.925 231.71388 71.14375 231.24513Q71.31563 230.88576 71.31563 230.19826L71.31563 229.80763Z" fill-rule="nonzero"/><path fill="#9e9e9e" d="M24.51875 243.44826L23.471874 243.52638Q23.33125 242.90138 23.08125 242.62013Q22.64375 242.167 22.01875 242.167Q21.51875 242.167 21.128124 242.44826Q20.64375 242.82326 20.346874 243.52638Q20.065624 244.21388 20.05 245.49513Q20.425 244.917 20.971874 244.63576Q21.534374 244.3545 22.14375 244.3545Q23.190624 244.3545 23.925 245.13576Q24.675 245.917 24.675 247.13576Q24.675 247.94826 24.315624 248.65138Q23.971874 249.33888 23.3625 249.71388Q22.753124 250.07326 21.9875 250.07326Q20.659374 250.07326 19.83125 249.1045Q19.003124 248.13576 19.003124 245.917Q19.003124 243.417 19.925 242.292Q20.721874 241.30763 22.08125 241.30763Q23.096874 241.30763 23.7375 241.88576Q24.39375 242.44826 24.51875 243.44826ZM20.221874 247.15138Q20.221874 247.69826 20.440624 248.19826Q20.675 248.68263 21.08125 248.94826Q21.503124 249.21388 21.971874 249.21388Q22.628124 249.21388 23.1125 248.68263Q23.596874 248.13576 23.596874 247.21388Q23.596874 246.32326 23.1125 245.80763Q22.64375 245.292 21.925 245.292Q21.20625 245.292 20.70625 245.80763Q20.221874 246.32326 20.221874 247.15138ZM26.05 245.69826Q26.05 244.167 26.3625 243.24513Q26.675 242.30763 27.284374 241.80763Q27.909374 241.30763 28.846874 241.30763Q29.534374 241.30763 30.05 241.58888Q30.58125 241.87013 30.925 242.40138Q31.26875 242.917 31.45625 243.667Q31.64375 244.417 31.64375 245.69826Q31.64375 247.21388 31.33125 248.13576Q31.034374 249.05763 30.409374 249.57326Q29.8 250.07326 28.846874 250.07326Q27.6125 250.07326 26.89375 249.18263Q26.05 248.12013 26.05 245.69826ZM27.128124 245.69826Q27.128124 247.80763 27.628124 248.51076Q28.128124 249.21388 28.846874 249.21388Q29.58125 249.21388 30.065624 248.51076Q30.565624 247.80763 30.565624 245.69826Q30.565624 243.57326 30.065624 242.88576Q29.58125 242.18263 28.83125 242.18263Q28.1125 242.18263 27.675 242.792Q27.128124 243.57326 27.128124 245.69826ZM33.6125 249.93263L33.6125 248.7295L34.815624 248.7295L34.815624 249.93263Q34.815624 250.58888 34.58125 250.99513Q34.346874 251.417 33.846874 251.63576L33.55 251.18263Q33.878124 251.042 34.034374 250.74513Q34.190624 250.46388 34.221874 249.93263L33.6125 249.93263ZM41.51875 243.44826L40.471874 243.52638Q40.33125 242.90138 40.08125 242.62013Q39.64375 242.167 39.01875 242.167Q38.51875 242.167 38.128124 242.44826Q37.64375 242.82326 37.346874 243.52638Q37.065624 244.21388 37.05 245.49513Q37.425 244.917 37.971874 244.63576Q38.534374 244.3545 39.14375 244.3545Q40.190624 244.3545 40.925 245.13576Q41.675 245.917 41.675 247.13576Q41.675 247.94826 41.315624 248.65138Q40.971874 249.33888 40.3625 249.71388Q39.753124 250.07326 38.9875 250.07326Q37.659374 250.07326 36.83125 249.1045Q36.003124 248.13576 36.003124 245.917Q36.003124 243.417 36.925 242.292Q37.721874 241.30763 39.08125 241.30763Q40.096874 241.30763 40.7375 241.88576Q41.39375 242.44826 41.51875 243.44826ZM37.221874 247.15138Q37.221874 247.69826 37.440624 248.19826Q37.675 248.68263 38.08125 248.94826Q38.503124 249.21388 38.971874 249.21388Q39.628124 249.21388 40.1125 248.68263Q40.596874 248.13576 40.596874 247.21388Q40.596874 246.32326 40.1125 245.80763Q39.64375 245.292 38.925 245.292Q38.20625 245.292 37.70625 245.80763Q37.221874 246.32326 37.221874 247.15138ZM43.253124 243.40138Q43.253124 242.4795 43.70625 241.83888Q44.175 241.19826 45.05 241.19826Q45.8625 241.19826 46.39375 241.77638Q46.925 242.3545 46.925 243.46388Q46.925 244.55763 46.378124 245.15138Q45.846874 245.7295 45.065624 245.7295Q44.284374 245.7295 43.76875 245.15138Q43.253124 244.57326 43.253124 243.40138ZM45.08125 241.917Q44.690624 241.917 44.425 242.26076Q44.175 242.6045 44.175 243.51076Q44.175 244.33888 44.425 244.68263Q44.690624 245.01076 45.08125 245.01076Q45.4875 245.01076 45.7375 244.667Q46.003124 244.32326 46.003124 243.43263Q46.003124 242.58888 45.7375 242.26076Q45.471874 241.917 45.08125 241.917ZM45.08125 250.24513L49.784374 241.19826L50.64375 241.19826L45.95625 250.24513L45.08125 250.24513ZM48.8 247.917Q48.8 246.99513 49.253124 246.3545Q49.721874 245.71388 50.6125 245.71388Q51.425 245.71388 51.95625 246.292Q52.4875 246.8545 52.4875 247.9795Q52.4875 249.07326 51.940624 249.667Q51.409374 250.24513 50.6125 250.24513Q49.846874 250.24513 49.315624 249.667Q48.8 249.08888 48.8 247.917ZM50.64375 246.43263Q50.2375 246.43263 49.971874 246.77638Q49.721874 247.12013 49.721874 248.02638Q49.721874 248.83888 49.9875 249.18263Q50.253124 249.52638 50.64375 249.52638Q51.034374 249.52638 51.3 249.18263Q51.565624 248.83888 51.565624 247.93263Q51.565624 247.1045 51.3 246.77638Q51.034374 246.43263 50.64375 246.43263Z" fill-rule="nonzero"/><path stroke="#757575" stroke-width="1.0" stroke-linecap="butt" d="M18.55 237.43263L127.05 237.43263L150.14088 237.43263" fill-rule="nonzero"/><path fill="#9e9e9e" d="M152.14088 237.43263C152.14088 236.32806 151.24545 235.43263 150.14088 235.43263C149.03632 235.43263 148.14088 236.32806 148.14088 237.43263C148.14088 238.5372 149.03632 239.43263 150.14088 239.43263C151.24545 239.43263 152.14088 238.5372 152.14088 237.43263" fill-rule="nonzero"/><path fill="#1a1a1a" d="M543.2469 31.940624L543.2469 23.33125L544.2 23.33125L544.2 24.128124Q544.54376 23.659374 544.96564 23.425Q545.40314 23.190624 546.0125 23.190624Q546.8094 23.190624 547.41876 23.596874Q548.02814 24.003124 548.325 24.753124Q548.6375 25.503124 548.6375 26.39375Q548.6375 27.346874 548.29376 28.1125Q547.96564 28.878124 547.3094 29.284374Q546.65314 29.690624 545.9344 29.690624Q545.40314 29.690624 544.98126 29.471874Q544.5594 29.2375 544.29376 28.909374L544.29376 31.940624L543.2469 31.940624ZM544.2 26.471874Q544.2 27.675 544.6844 28.253124Q545.16876 28.815624 545.85626 28.815624Q546.5594 28.815624 547.0594 28.221874Q547.5594 27.628124 547.5594 26.378124Q547.5594 25.190624 547.075 24.6125Q546.59064 24.01875 545.90314 24.01875Q545.23126 24.01875 544.71564 24.64375Q544.2 25.26875 544.2 26.471874ZM549.85626 26.440624Q549.85626 24.70625 550.8094 23.878124Q551.60626 23.190624 552.7625 23.190624Q554.04376 23.190624 554.85626 24.034374Q555.6844 24.8625 555.6844 26.346874Q555.6844 27.55 555.325 28.2375Q554.96564 28.925 554.2625 29.315624Q553.575 29.690624 552.7625 29.690624Q551.46564 29.690624 550.65314 28.8625Q549.85626 28.01875 549.85626 26.440624ZM550.9344 26.440624Q550.9344 27.628124 551.45 28.221874Q551.98126 28.815624 552.7625 28.815624Q553.5594 28.815624 554.075 28.221874Q554.59064 27.628124 554.59064 26.409374Q554.59064 25.253124 554.0594 24.659374Q553.54376 24.065624 552.7625 24.065624Q551.98126 24.065624 551.45 24.659374Q550.9344 25.2375 550.9344 26.440624ZM557.21564 29.55L557.21564 20.95625L558.27814 20.95625L558.27814 29.55L557.21564 29.55ZM560.2469 22.175L560.2469 20.95625L561.3094 20.95625L561.3094 22.175L560.2469 22.175ZM560.2469 29.55L560.2469 23.33125L561.3094 23.33125L561.3094 29.55L560.2469 29.55ZM565.54376 28.6125L565.7 29.534374Q565.2469 29.628124 564.90314 29.628124Q564.325 29.628124 564.0125 29.45625Q563.7 29.26875 563.5594 28.971874Q563.4344 28.675 563.4344 27.721874L563.4344 24.14375L562.66876 24.14375L562.66876 23.33125L563.4344 23.33125L563.4344 21.784374L564.48126 21.159374L564.48126 23.33125L565.54376 23.33125L565.54376 24.14375L564.48126 24.14375L564.48126 27.784374Q564.48126 28.2375 564.52814 28.3625Q564.59064 28.4875 564.71564 28.565624Q564.84064 28.64375 565.075 28.64375Q565.2625 28.64375 565.54376 28.6125ZM566.2469 22.175L566.2469 20.95625L567.3094 20.95625L567.3094 22.175L566.2469 22.175ZM566.2469 29.55L566.2469 23.33125L567.3094 23.33125L567.3094 29.55L566.2469 29.55ZM573.3094 27.26875L574.34064 27.409374Q574.16876 28.471874 573.46564 29.08125Q572.7625 29.690624 571.7469 29.690624Q570.46564 29.690624 569.6844 28.8625Q568.91876 28.01875 568.91876 26.45625Q568.91876 25.45625 569.2469 24.70625Q569.59064 23.940624 570.2625 23.565624Q570.95 23.190624 571.7625 23.190624Q572.7625 23.190624 573.40314 23.70625Q574.0594 24.20625 574.2469 25.159374L573.21564 25.315624Q573.075 24.690624 572.7 24.378124Q572.325 24.05 571.79376 24.05Q570.9969 24.05 570.4969 24.628124Q569.9969 25.190624 569.9969 26.425Q569.9969 27.690624 570.48126 28.253124Q570.96564 28.815624 571.73126 28.815624Q572.35626 28.815624 572.7625 28.440624Q573.1844 28.065624 573.3094 27.26875ZM579.3094 28.784374Q578.71564 29.284374 578.16876 29.4875Q577.6375 29.690624 577.0125 29.690624Q575.98126 29.690624 575.4344 29.190624Q574.8875 28.690624 574.8875 27.909374Q574.8875 27.45625 575.09064 27.08125Q575.29376 26.690624 575.6375 26.471874Q575.98126 26.2375 576.40314 26.128124Q576.7 26.034374 577.34064 25.95625Q578.60626 25.815624 579.21564 25.596874Q579.21564 25.378124 579.21564 25.33125Q579.21564 24.675 578.91876 24.409374Q578.5125 24.065624 577.71564 24.065624Q576.98126 24.065624 576.6219 24.33125Q576.2625 24.58125 576.09064 25.2375L575.0594 25.096874Q575.2 24.440624 575.52814 24.034374Q575.85626 23.628124 576.46564 23.409374Q577.075 23.190624 577.8719 23.190624Q578.66876 23.190624 579.16876 23.378124Q579.66876 23.565624 579.90314 23.846874Q580.1375 24.128124 580.23126 24.565624Q580.27814 24.83125 580.27814 25.534374L580.27814 26.940624Q580.27814 28.409374 580.34064 28.8Q580.41876 29.190624 580.6219 29.55L579.5125 29.55Q579.35626 29.221874 579.3094 28.784374ZM579.21564 26.425Q578.6375 26.659374 577.4969 26.83125Q576.84064 26.925 576.575 27.05Q576.3094 27.159374 576.15314 27.378124Q576.0125 27.596874 576.0125 27.878124Q576.0125 28.3 576.325 28.58125Q576.65314 28.8625 577.2625 28.8625Q577.8719 28.8625 578.34064 28.596874Q578.825 28.33125 579.04376 27.8625Q579.21564 27.503124 579.21564 26.815624L579.21564 26.425Z" fill-rule="nonzero"/><path fill="#9e9e9e" d="M554.0125 39.08125L554.0125 38.065624L559.575 38.065624L559.575 38.89375Q558.7625 39.76875 557.95 41.221874Q557.15314 42.659374 556.71564 44.190624Q556.3875 45.26875 556.3094 46.55L555.21564 46.55Q555.23126 45.534374 555.60626 44.096874Q555.9969 42.659374 556.7 41.33125Q557.41876 40.003124 558.23126 39.08125L554.0125 39.08125ZM561.5125 46.55L561.5125 45.346874L562.71564 45.346874L562.71564 46.55Q562.71564 47.20625 562.48126 47.6125Q562.2469 48.034374 561.7469 48.253124L561.45 47.8Q561.77814 47.659374 561.9344 47.3625Q562.09064 47.08125 562.1219 46.55L561.5125 46.55ZM563.95 42.315624Q563.95 40.784374 564.2625 39.8625Q564.575 38.925 565.1844 38.425Q565.8094 37.925 566.7469 37.925Q567.4344 37.925 567.95 38.20625Q568.48126 38.4875 568.825 39.01875Q569.16876 39.534374 569.35626 40.284374Q569.54376 41.034374 569.54376 42.315624Q569.54376 43.83125 569.23126 44.753124Q568.9344 45.675 568.3094 46.190624Q567.7 46.690624 566.7469 46.690624Q565.5125 46.690624 564.79376 45.8Q563.95 44.7375 563.95 42.315624ZM565.02814 42.315624Q565.02814 44.425 565.52814 45.128124Q566.02814 45.83125 566.7469 45.83125Q567.48126 45.83125 567.96564 45.128124Q568.46564 44.425 568.46564 42.315624Q568.46564 40.190624 567.96564 39.503124Q567.48126 38.8 566.73126 38.8Q566.0125 38.8 565.575 39.409374Q565.02814 40.190624 565.02814 42.315624ZM571.15314 40.01875Q571.15314 39.096874 571.60626 38.45625Q572.075 37.815624 572.95 37.815624Q573.7625 37.815624 574.29376 38.39375Q574.825 38.971874 574.825 40.08125Q574.825 41.175 574.27814 41.76875Q573.7469 42.346874 572.96564 42.346874Q572.1844 42.346874 571.66876 41.76875Q571.15314 41.190624 571.15314 40.01875ZM572.98126 38.534374Q572.59064 38.534374 572.325 38.878124Q572.075 39.221874 572.075 40.128124Q572.075 40.95625 572.325 41.3Q572.59064 41.628124 572.98126 41.628124Q573.3875 41.628124 573.6375 41.284374Q573.90314 40.940624 573.90314 40.05Q573.90314 39.20625 573.6375 38.878124Q573.3719 38.534374 572.98126 38.534374ZM572.98126 46.8625L577.6844 37.815624L578.54376 37.815624L573.85626 46.8625L572.98126 46.8625ZM576.7 44.534374Q576.7 43.6125 577.15314 42.971874Q577.6219 42.33125 578.5125 42.33125Q579.325 42.33125 579.85626 42.909374Q580.3875 43.471874 580.3875 44.596874Q580.3875 45.690624 579.84064 46.284374Q579.3094 46.8625 578.5125 46.8625Q577.7469 46.8625 577.21564 46.284374Q576.7 45.70625 576.7 44.534374ZM578.54376 43.05Q578.1375 43.05 577.8719 43.39375Q577.6219 43.7375 577.6219 44.64375Q577.6219 45.45625 577.8875 45.8Q578.15314 46.14375 578.54376 46.14375Q578.9344 46.14375 579.2 45.8Q579.46564 45.45625 579.46564 44.55Q579.46564 43.721874 579.2 43.39375Q578.9344 43.05 578.54376 43.05Z" fill-rule="nonzero"/><path stroke="#757575" stroke-width="1.0" stroke-linecap="butt" d="M581.45 34.05L472.95 34.05L334.6482 30.728374" fill-rule="nonzero"/><path fill="#9e9e9e" d="M336.6482 30.728374C336.6482 29.623806 335.75275 28.728374 334.6482 28.728374C333.5436 28.728374 332.6482 29.623806 332.6482 30.728374C332.6482 31.832945 333.5436 32.728374 334.6482 32.728374C335.75275 32.728374 336.6482 31.832945 336.6482 30.728374" fill-rule="nonzero"/><path fill="#1a1a1a" d="M537.27814 163.05986L537.27814 162.27861Q536.6844 163.20049 535.54376 163.20049Q534.79376 163.20049 534.16876 162.79424Q533.54376 162.37236 533.2 161.63799Q532.85626 160.90361 532.85626 159.95049Q532.85626 159.02861 533.16876 158.26299Q533.48126 157.49736 534.10626 157.10674Q534.73126 156.70049 535.4969 156.70049Q536.0594 156.70049 536.4969 156.93486Q536.9344 157.16924 537.21564 157.54424L537.21564 154.46611L538.2625 154.46611L538.2625 163.05986L537.27814 163.05986ZM533.95 159.95049Q533.95 161.15361 534.45 161.74736Q534.95 162.32549 535.6375 162.32549Q536.325 162.32549 536.8094 161.76299Q537.29376 161.20049 537.29376 160.04424Q537.29376 158.76299 536.79376 158.16924Q536.3094 157.57549 535.59064 157.57549Q534.8875 157.57549 534.41876 158.15361Q533.95 158.71611 533.95 159.95049ZM544.4969 161.05986L545.59064 161.18486Q545.34064 162.13799 544.6375 162.66924Q543.9344 163.20049 542.85626 163.20049Q541.4969 163.20049 540.6844 162.35674Q539.8875 161.51299 539.8875 159.99736Q539.8875 158.43486 540.7 157.57549Q541.5125 156.70049 542.79376 156.70049Q544.04376 156.70049 544.825 157.54424Q545.6219 158.38799 545.6219 159.93486Q545.6219 160.02861 545.6219 160.21611L540.98126 160.21611Q541.04376 161.24736 541.5594 161.79424Q542.075 162.32549 542.85626 162.32549Q543.4344 162.32549 543.84064 162.02861Q544.2625 161.71611 544.4969 161.05986ZM541.04376 159.35674L544.5125 159.35674Q544.45 158.55986 544.1219 158.16924Q543.60626 157.55986 542.8094 157.55986Q542.075 157.55986 541.575 158.04424Q541.09064 158.52861 541.04376 159.35674ZM547.2469 165.45049L547.2469 156.84111L548.2 156.84111L548.2 157.63799Q548.54376 157.16924 548.96564 156.93486Q549.40314 156.70049 550.0125 156.70049Q550.8094 156.70049 551.41876 157.10674Q552.02814 157.51299 552.325 158.26299Q552.6375 159.01299 552.6375 159.90361Q552.6375 160.85674 552.29376 161.62236Q551.96564 162.38799 551.3094 162.79424Q550.65314 163.20049 549.9344 163.20049Q549.40314 163.20049 548.98126 162.98174Q548.5594 162.74736 548.29376 162.41924L548.29376 165.45049L547.2469 165.45049ZM548.2 159.98174Q548.2 161.18486 548.6844 161.76299Q549.16876 162.32549 549.85626 162.32549Q550.5594 162.32549 551.0594 161.73174Q551.5594 161.13799 551.5594 159.88799Q551.5594 158.70049 551.075 158.12236Q550.59064 157.52861 549.90314 157.52861Q549.23126 157.52861 548.71564 158.15361Q548.2 158.77861 548.2 159.98174ZM553.85626 159.95049Q553.85626 158.21611 554.8094 157.38799Q555.60626 156.70049 556.7625 156.70049Q558.04376 156.70049 558.85626 157.54424Q559.6844 158.37236 559.6844 159.85674Q559.6844 161.05986 559.325 161.74736Q558.96564 162.43486 558.2625 162.82549Q557.575 163.20049 556.7625 163.20049Q555.46564 163.20049 554.65314 162.37236Q553.85626 161.52861 553.85626 159.95049ZM554.9344 159.95049Q554.9344 161.13799 555.45 161.73174Q555.98126 162.32549 556.7625 162.32549Q557.5594 162.32549 558.075 161.73174Q558.59064 161.13799 558.59064 159.91924Q558.59064 158.76299 558.0594 158.16924Q557.54376 157.57549 556.7625 157.57549Q555.98126 157.57549 555.45 158.16924Q554.9344 158.74736 554.9344 159.95049ZM561.23126 163.05986L561.23126 156.84111L562.1844 156.84111L562.1844 157.77861Q562.54376 157.12236 562.84064 156.91924Q563.15314 156.70049 563.52814 156.70049Q564.0594 156.70049 564.60626 157.02861L564.2469 158.01299Q563.85626 157.77861 563.48126 157.77861Q563.1219 157.77861 562.84064 157.99736Q562.575 158.20049 562.46564 158.57549Q562.27814 159.13799 562.27814 159.79424L562.27814 163.05986L561.23126 163.05986ZM567.54376 162.12236L567.7 163.04424Q567.2469 163.13799 566.90314 163.13799Q566.325 163.13799 566.0125 162.96611Q565.7 162.77861 565.5594 162.48174Q565.4344 162.18486 565.4344 161.23174L565.4344 157.65361L564.66876 157.65361L564.66876 156.84111L565.4344 156.84111L565.4344 155.29424L566.48126 154.66924L566.48126 156.84111L567.54376 156.84111L567.54376 157.65361L566.48126 157.65361L566.48126 161.29424Q566.48126 161.74736 566.52814 161.87236Q566.59064 161.99736 566.71564 162.07549Q566.84064 162.15361 567.075 162.15361Q567.2625 162.15361 567.54376 162.12236ZM572.4969 161.05986L573.59064 161.18486Q573.34064 162.13799 572.6375 162.66924Q571.9344 163.20049 570.85626 163.20049Q569.4969 163.20049 568.6844 162.35674Q567.8875 161.51299 567.8875 159.99736Q567.8875 158.43486 568.7 157.57549Q569.5125 156.70049 570.79376 156.70049Q572.04376 156.70049 572.825 157.54424Q573.6219 158.38799 573.6219 159.93486Q573.6219 160.02861 573.6219 160.21611L568.98126 160.21611Q569.04376 161.24736 569.5594 161.79424Q570.075 162.32549 570.85626 162.32549Q571.4344 162.32549 571.84064 162.02861Q572.2625 161.71611 572.4969 161.05986ZM569.04376 159.35674L572.5125 159.35674Q572.45 158.55986 572.1219 158.16924Q571.60626 157.55986 570.8094 157.55986Q570.075 157.55986 569.575 158.04424Q569.09064 158.52861 569.04376 159.35674ZM574.825 161.20049L575.85626 161.04424Q575.95 161.66924 576.34064 161.99736Q576.7469 162.32549 577.48126 162.32549Q578.2 162.32549 578.54376 162.04424Q578.90314 161.74736 578.90314 161.34111Q578.90314 160.98174 578.59064 160.77861Q578.3719 160.63799 577.5125 160.41924Q576.35626 160.12236 575.90314 159.91924Q575.46564 159.70049 575.23126 159.32549Q574.9969 158.95049 574.9969 158.48174Q574.9969 158.07549 575.1844 157.71611Q575.3719 157.35674 575.7 157.12236Q575.95 156.95049 576.3719 156.82549Q576.79376 156.70049 577.29376 156.70049Q578.0125 156.70049 578.5594 156.91924Q579.1219 157.12236 579.3875 157.48174Q579.65314 157.84111 579.7469 158.43486L578.71564 158.57549Q578.65314 158.10674 578.3094 157.84111Q577.98126 157.55986 577.35626 157.55986Q576.6375 157.55986 576.325 157.80986Q576.0125 158.04424 576.0125 158.37236Q576.0125 158.57549 576.1375 158.73174Q576.27814 158.90361 576.54376 159.01299Q576.7 159.07549 577.48126 159.27861Q578.60626 159.59111 579.04376 159.77861Q579.48126 159.96611 579.73126 160.32549Q579.98126 160.68486 579.98126 161.23174Q579.98126 161.76299 579.66876 162.23174Q579.3719 162.68486 578.79376 162.95049Q578.21564 163.20049 577.48126 163.20049Q576.2625 163.20049 575.6219 162.70049Q574.9969 162.18486 574.825 161.20049Z" fill-rule="nonzero"/><path fill="#9e9e9e" d="M546.95 177.79424L548.0125 177.65361Q548.1844 178.54424 548.6219 178.95049Q549.0594 179.34111 549.6844 179.34111Q550.4344 179.34111 550.95 178.82549Q551.46564 178.30986 551.46564 177.54424Q551.46564 176.82549 550.98126 176.35674Q550.5125 175.87236 549.77814 175.87236Q549.48126 175.87236 549.02814 175.99736L549.15314 175.05986Q549.2625 175.07549 549.325 175.07549Q549.9969 175.07549 550.52814 174.73174Q551.075 174.37236 551.075 173.63799Q551.075 173.05986 550.6844 172.68486Q550.29376 172.29424 549.66876 172.29424Q549.0594 172.29424 548.6375 172.68486Q548.23126 173.07549 548.1219 173.84111L547.0594 173.65361Q547.2469 172.60674 547.9344 172.02861Q548.6219 171.43486 549.6375 171.43486Q550.34064 171.43486 550.9344 171.74736Q551.52814 172.04424 551.84064 172.55986Q552.15314 173.07549 552.15314 173.66924Q552.15314 174.21611 551.85626 174.68486Q551.5594 175.13799 550.98126 175.40361Q551.73126 175.57549 552.15314 176.13799Q552.575 176.68486 552.575 177.52861Q552.575 178.65361 551.7469 179.43486Q550.9344 180.21611 549.6844 180.21611Q548.5594 180.21611 547.8094 179.54424Q547.0594 178.85674 546.95 177.79424ZM559.4969 179.04424L559.4969 180.05986L553.8094 180.05986Q553.8094 179.68486 553.9344 179.32549Q554.15314 178.74736 554.6219 178.18486Q555.10626 177.62236 556.0125 176.88799Q557.41876 175.73174 557.90314 175.05986Q558.40314 174.38799 558.40314 173.79424Q558.40314 173.16924 557.95 172.74736Q557.4969 172.30986 556.77814 172.30986Q556.0125 172.30986 555.5594 172.76299Q555.10626 173.21611 555.09064 174.02861L554.0125 173.91924Q554.1219 172.70049 554.84064 172.07549Q555.575 171.43486 556.8094 171.43486Q558.04376 171.43486 558.7625 172.12236Q559.48126 172.80986 559.48126 173.82549Q559.48126 174.34111 559.2625 174.84111Q559.0594 175.32549 558.5594 175.88799Q558.075 176.43486 556.95 177.38799Q555.9969 178.18486 555.71564 178.48174Q555.45 178.76299 555.27814 179.04424L559.4969 179.04424ZM561.5125 180.05986L561.5125 178.85674L562.71564 178.85674L562.71564 180.05986Q562.71564 180.71611 562.48126 181.12236Q562.2469 181.54424 561.7469 181.76299L561.45 181.30986Q561.77814 181.16924 561.9344 180.87236Q562.09064 180.59111 562.1219 180.05986L561.5125 180.05986ZM567.325 180.05986L567.325 177.99736L563.60626 177.99736L563.60626 177.02861L567.52814 171.46611L568.3875 171.46611L568.3875 177.02861L569.54376 177.02861L569.54376 177.99736L568.3875 177.99736L568.3875 180.05986L567.325 180.05986ZM567.325 177.02861L567.325 173.16924L564.6375 177.02861L567.325 177.02861ZM571.15314 173.52861Q571.15314 172.60674 571.60626 171.96611Q572.075 171.32549 572.95 171.32549Q573.7625 171.32549 574.29376 171.90361Q574.825 172.48174 574.825 173.59111Q574.825 174.68486 574.27814 175.27861Q573.7469 175.85674 572.96564 175.85674Q572.1844 175.85674 571.66876 175.27861Q571.15314 174.70049 571.15314 173.52861ZM572.98126 172.04424Q572.59064 172.04424 572.325 172.38799Q572.075 172.73174 572.075 173.63799Q572.075 174.46611 572.325 174.80986Q572.59064 175.13799 572.98126 175.13799Q573.3875 175.13799 573.6375 174.79424Q573.90314 174.45049 573.90314 173.55986Q573.90314 172.71611 573.6375 172.38799Q573.3719 172.04424 572.98126 172.04424ZM572.98126 180.37236L577.6844 171.32549L578.54376 171.32549L573.85626 180.37236L572.98126 180.37236ZM576.7 178.04424Q576.7 177.12236 577.15314 176.48174Q577.6219 175.84111 578.5125 175.84111Q579.325 175.84111 579.85626 176.41924Q580.3875 176.98174 580.3875 178.10674Q580.3875 179.20049 579.84064 179.79424Q579.3094 180.37236 578.5125 180.37236Q577.7469 180.37236 577.21564 179.79424Q576.7 179.21611 576.7 178.04424ZM578.54376 176.55986Q578.1375 176.55986 577.8719 176.90361Q577.6219 177.24736 577.6219 178.15361Q577.6219 178.96611 577.8875 179.30986Q578.15314 179.65361 578.54376 179.65361Q578.9344 179.65361 579.2 179.30986Q579.46564 178.96611 579.46564 178.05986Q579.46564 177.23174 579.2 176.90361Q578.9344 176.55986 578.54376 176.55986Z" fill-rule="nonzero"/><path stroke="#757575" stroke-width="1.0" stroke-linecap="butt" d="M581.45 167.55986L472.95 167.55986L457.5846 167.55986" fill-rule="nonzero"/><path fill="#9e9e9e" d="M459.5846 167.55986C459.5846 166.45529 458.68918 165.55986 457.5846 165.55986C456.48 165.55986 455.5846 166.45529 455.5846 167.55986C455.5846 168.66443 456.48 169.55986 457.5846 169.55986C458.68918 169.55986 459.5846 168.66443 459.5846 167.55986" fill-rule="nonzero"/></svg>