<svg version="1.1" viewBox="0.0 0.0 600.0 371.0" fill="none" stroke="none" stroke-linecap="square" stroke-miterlimit="10" width="600" height="371" xmlns:xlink="http://www.w3.org/1999/xlink" xmlns="http://www.w3.org/2000/svg"><path fill="#ffffff" d="M0 0L600.0 0L600.0 371.0L0 371.0L0 0Z" fill-rule="nonzero"/><path fill="#4285f4" d="M300.0 18.55C377.8911 18.55 445.43182 72.41191 462.76422 148.35013C480.09662 224.28835 442.61435 302.12106 372.4369 335.91675L300.0 185.5Z" fill-rule="nonzero"/><path fill="#34a853" d="M195.90837 54.973232C225.47823 31.392063 262.17874 18.55 300.0 18.55L300.0 185.5Z" fill-rule="nonzero"/><path fill="#fbbc04" d="M137.23578 222.64987C122.96553 160.12779 145.76956 94.9576 195.90837 54.973232L300.0 185.5Z" fill-rule="nonzero"/><path fill="#ea4335" d="M372.4369 335.91675C326.66138 357.9611 273.33862 357.9611 227.56311 335.91675C181.78758 313.87244 148.54141 272.18304 137.23578 222.64987L300.0 185.5Z" fill-rule="nonzero"/><path fill="#1a1a1a" d="M19.128124 27.110245Q19.128124 24.96962 20.26875 23.766495Q21.425 22.547745 23.2375 22.547745Q24.440624 22.547745 25.39375 23.12587Q26.346874 23.68837 26.846874 24.703995Q27.346874 25.71962 27.346874 27.016495Q27.346874 28.31337 26.815624 29.34462Q26.284374 30.37587 25.315624 30.90712Q24.3625 31.43837 23.2375 31.43837Q22.01875 31.43837 21.065624 30.860245Q20.1125 30.266495 19.6125 29.266495Q19.128124 28.25087 19.128124 27.110245ZM20.3 27.12587Q20.3 28.68837 21.128124 29.578995Q21.971874 30.46962 23.2375 30.46962Q24.51875 30.46962 25.346874 29.578995Q26.175 28.672745 26.175 27.00087Q26.175 25.953995 25.815624 25.172745Q25.471874 24.391495 24.784374 23.96962Q24.096874 23.53212 23.253124 23.53212Q22.05 23.53212 21.175 24.360245Q20.3 25.18837 20.3 27.12587ZM28.346874 33.68837L28.346874 25.078995L29.3 25.078995L29.3 25.87587Q29.64375 25.40712 30.065624 25.172745Q30.503124 24.93837 31.1125 24.93837Q31.909374 24.93837 32.51875 25.34462Q33.128124 25.75087 33.425 26.50087Q33.7375 27.25087 33.7375 28.141495Q33.7375 29.09462 33.39375 29.860245Q33.065624 30.62587 32.409374 31.03212Q31.753124 31.43837 31.034374 31.43837Q30.503124 31.43837 30.08125 31.21962Q29.659374 30.985245 29.39375 30.65712L29.39375 33.68837L28.346874 33.68837ZM29.3 28.21962Q29.3 29.422745 29.784374 30.00087Q30.26875 30.56337 30.95625 30.56337Q31.659374 30.56337 32.159374 29.96962Q32.659374 29.37587 32.659374 28.12587Q32.659374 26.93837 32.175 26.360245Q31.690624 25.766495 31.003124 25.766495Q30.33125 25.766495 29.815624 26.391495Q29.3 27.016495 29.3 28.21962ZM39.409374 29.016495L40.440624 29.15712Q40.26875 30.21962 39.565624 30.828995Q38.8625 31.43837 37.846874 31.43837Q36.565624 31.43837 35.784374 30.610245Q35.01875 29.766495 35.01875 28.203995Q35.01875 27.203995 35.346874 26.453995Q35.690624 25.68837 36.3625 25.31337Q37.05 24.93837 37.8625 24.93837Q38.8625 24.93837 39.503124 25.453995Q40.159374 25.953995 40.346874 26.90712L39.315624 27.06337Q39.175 26.43837 38.8 26.12587Q38.425 25.797745 37.89375 25.797745Q37.096874 25.797745 36.596874 26.37587Q36.096874 26.93837 36.096874 28.172745Q36.096874 29.43837 36.58125 30.00087Q37.065624 30.56337 37.83125 30.56337Q38.45625 30.56337 38.8625 30.18837Q39.284374 29.81337 39.409374 29.016495ZM41.346874 23.922745L41.346874 22.703995L42.409374 22.703995L42.409374 23.922745L41.346874 23.922745ZM41.346874 31.297745L41.346874 25.078995L42.409374 25.078995L42.409374 31.297745L41.346874 31.297745ZM43.95625 28.18837Q43.95625 26.453995 44.909374 25.62587Q45.70625 24.93837 46.8625 24.93837Q48.14375 24.93837 48.95625 25.78212Q49.784374 26.610245 49.784374 28.09462Q49.784374 29.297745 49.425 29.985245Q49.065624 30.672745 48.3625 31.06337Q47.675 31.43837 46.8625 31.43837Q45.565624 31.43837 44.753124 30.610245Q43.95625 29.766495 43.95625 28.18837ZM45.034374 28.18837Q45.034374 29.37587 45.55 29.96962Q46.08125 30.56337 46.8625 30.56337Q47.659374 30.56337 48.175 29.96962Q48.690624 29.37587 48.690624 28.15712Q48.690624 27.00087 48.159374 26.40712Q47.64375 25.81337 46.8625 25.81337Q46.08125 25.81337 45.55 26.40712Q45.034374 26.985245 45.034374 28.18837ZM46.284374 24.297745L47.065624 22.65712L48.45625 22.65712L47.159374 24.297745L46.284374 24.297745ZM51.346874 31.297745L51.346874 25.078995L52.284374 25.078995L52.284374 25.953995Q52.971874 24.93837 54.26875 24.93837Q54.83125 24.93837 55.3 25.141495Q55.784374 25.34462 56.01875 25.672745Q56.253124 26.00087 56.346874 26.43837Q56.39375 26.735245 56.39375 27.46962L56.39375 31.297745L55.346874 31.297745L55.346874 27.516495Q55.346874 26.860245 55.221874 26.547745Q55.096874 26.235245 54.784374 26.047745Q54.471874 25.84462 54.05 25.84462Q53.378124 25.84462 52.878124 26.28212Q52.39375 26.703995 52.39375 27.891495L52.39375 31.297745L51.346874 31.297745ZM61.471874 31.297745L61.471874 22.703995L64.44063 22.703995Q65.44063 22.703995 65.97188 22.828995Q66.70625 23.00087 67.22188 23.43837Q67.90938 24.016495 68.2375 24.922745Q68.58125 25.81337 68.58125 26.953995Q68.58125 27.93837 68.34688 28.68837Q68.12813 29.43837 67.76875 29.93837Q67.40938 30.43837 66.97188 30.71962Q66.55 31.00087 65.95625 31.15712Q65.3625 31.297745 64.58125 31.297745L61.471874 31.297745ZM62.6125 30.28212L64.44063 30.28212Q65.3 30.28212 65.78438 30.12587Q66.26875 29.96962 66.55 29.672745Q66.95625 29.28212 67.175 28.59462Q67.40938 27.90712 67.40938 26.93837Q67.40938 25.59462 66.95625 24.87587Q66.51875 24.141495 65.89375 23.891495Q65.425 23.71962 64.425 23.71962L62.6125 23.71962L62.6125 30.28212Z" fill-rule="nonzero"/><path fill="#9e9e9e" d="M23.01875 48.297745L21.971874 48.297745L21.971874 41.578995Q21.58125 41.93837 20.95625 42.31337Q20.346874 42.672745 19.8625 42.84462L19.8625 41.828995Q20.7375 41.40712 21.39375 40.828995Q22.065624 40.235245 22.346874 39.672745L23.01875 39.672745L23.01875 48.297745ZM26.05 44.06337Q26.05 42.53212 26.3625 41.610245Q26.675 40.672745 27.284374 40.172745Q27.909374 39.672745 28.846874 39.672745Q29.534374 39.672745 30.05 39.953995Q30.58125 40.235245 30.925 40.766495Q31.26875 41.28212 31.45625 42.03212Q31.64375 42.78212 31.64375 44.06337Q31.64375 45.578995 31.33125 46.50087Q31.034374 47.422745 30.409374 47.93837Q29.8 48.43837 28.846874 48.43837Q27.6125 48.43837 26.89375 47.547745Q26.05 46.485245 26.05 44.06337ZM27.128124 44.06337Q27.128124 46.172745 27.628124 46.87587Q28.128124 47.578995 28.846874 47.578995Q29.58125 47.578995 30.065624 46.87587Q30.565624 46.172745 30.565624 44.06337Q30.565624 41.93837 30.065624 41.25087Q29.58125 40.547745 28.83125 40.547745Q28.1125 40.547745 27.675 41.15712Q27.128124 41.93837 27.128124 44.06337ZM33.6125 48.297745L33.6125 47.09462L34.815624 47.09462L34.815624 48.297745Q34.815624 48.953995 34.58125 49.360245Q34.346874 49.78212 33.846874 50.00087L33.55 49.547745Q33.878124 49.40712 34.034374 49.110245Q34.190624 48.828995 34.221874 48.297745L33.6125 48.297745ZM36.1125 40.828995L36.1125 39.81337L41.675 39.81337L41.675 40.641495Q40.8625 41.516495 40.05 42.96962Q39.253124 44.40712 38.815624 45.93837Q38.4875 47.016495 38.409374 48.297745L37.315624 48.297745Q37.33125 47.28212 37.70625 45.84462Q38.096874 44.40712 38.8 43.078995Q39.51875 41.75087 40.33125 40.828995L36.1125 40.828995ZM43.253124 41.766495Q43.253124 40.84462 43.70625 40.203995Q44.175 39.56337 45.05 39.56337Q45.8625 39.56337 46.39375 40.141495Q46.925 40.71962 46.925 41.828995Q46.925 42.922745 46.378124 43.516495Q45.846874 44.09462 45.065624 44.09462Q44.284374 44.09462 43.76875 43.516495Q43.253124 42.93837 43.253124 41.766495ZM45.08125 40.28212Q44.690624 40.28212 44.425 40.62587Q44.175 40.96962 44.175 41.87587Q44.175 42.703995 44.425 43.047745Q44.690624 43.37587 45.08125 43.37587Q45.4875 43.37587 45.7375 43.03212Q46.003124 42.68837 46.003124 41.797745Q46.003124 40.953995 45.7375 40.62587Q45.471874 40.28212 45.08125 40.28212ZM45.08125 48.610245L49.784374 39.56337L50.64375 39.56337L45.95625 48.610245L45.08125 48.610245ZM48.8 46.28212Q48.8 45.360245 49.253124 44.71962Q49.721874 44.078995 50.6125 44.078995Q51.425 44.078995 51.95625 44.65712Q52.4875 45.21962 52.4875 46.34462Q52.4875 47.43837 51.940624 48.03212Q51.409374 48.610245 50.6125 48.610245Q49.846874 48.610245 49.315624 48.03212Q48.8 47.453995 48.8 46.28212ZM50.64375 44.797745Q50.2375 44.797745 49.971874 45.141495Q49.721874 45.485245 49.721874 46.391495Q49.721874 47.203995 49.9875 47.547745Q50.253124 47.891495 50.64375 47.891495Q51.034374 47.891495 51.3 47.547745Q51.565624 47.203995 51.565624 46.297745Q51.565624 45.46962 51.3 45.141495Q51.034374 44.797745 50.64375 44.797745Z" fill-rule="nonzero"/><path stroke="#757575" stroke-width="1.0" stroke-linecap="butt" d="M18.55 35.797745L127.05 35.797745L247.61691 35.797745" fill-rule="nonzero"/><path fill="#9e9e9e" d="M249.61691 35.797745C249.61691 34.693176 248.72148 33.797745 247.61691 33.797745C246.51234 33.797745 245.61691 34.693176 245.61691 35.797745C245.61691 36.902313 246.51234 37.797745 247.61691 37.797745C248.72148 37.797745 249.61691 36.902313 249.61691 35.797745" fill-rule="nonzero"/><path fill="#1a1a1a" d="M19.128124 124.42941Q19.128124 122.28879 20.26875 121.08566Q21.425 119.86691 23.2375 119.86691Q24.440624 119.86691 25.39375 120.44504Q26.346874 121.00754 26.846874 122.02316Q27.346874 123.03879 27.346874 124.33566Q27.346874 125.63254 26.815624 126.66379Q26.284374 127.69504 25.315624 128.22629Q24.3625 128.75754 23.2375 128.75754Q22.01875 128.75754 21.065624 128.17941Q20.1125 127.58566 19.6125 126.58566Q19.128124 125.57004 19.128124 124.42941ZM20.3 124.44504Q20.3 126.00754 21.128124 126.89816Q21.971874 127.78879 23.2375 127.78879Q24.51875 127.78879 25.346874 126.89816Q26.175 125.99191 26.175 124.32004Q26.175 123.27316 25.815624 122.49191Q25.471874 121.71066 24.784374 121.28879Q24.096874 120.85129 23.253124 120.85129Q22.05 120.85129 21.175 121.67941Q20.3 122.50754 20.3 124.44504ZM28.346874 131.00754L28.346874 122.39816L29.3 122.39816L29.3 123.19504Q29.64375 122.72629 30.065624 122.49191Q30.503124 122.25754 31.1125 122.25754Q31.909374 122.25754 32.51875 122.66379Q33.128124 123.07004 33.425 123.82004Q33.7375 124.57004 33.7375 125.46066Q33.7375 126.41379 33.39375 127.17941Q33.065624 127.94504 32.409374 128.35129Q31.753124 128.75754 31.034374 128.75754Q30.503124 128.75754 30.08125 128.53879Q29.659374 128.30441 29.39375 127.97629L29.39375 131.00754L28.346874 131.00754ZM29.3 125.53879Q29.3 126.74191 29.784374 127.32004Q30.26875 127.88254 30.95625 127.88254Q31.659374 127.88254 32.159374 127.28879Q32.659374 126.69504 32.659374 125.44504Q32.659374 124.25754 32.175 123.67941Q31.690624 123.08566 31.003124 123.08566Q30.33125 123.08566 29.815624 123.71066Q29.3 124.33566 29.3 125.53879ZM39.409374 126.33566L40.440624 126.47629Q40.26875 127.53879 39.565624 128.14816Q38.8625 128.75754 37.846874 128.75754Q36.565624 128.75754 35.784374 127.92941Q35.01875 127.08566 35.01875 125.52316Q35.01875 124.52316 35.346874 123.77316Q35.690624 123.00754 36.3625 122.63254Q37.05 122.25754 37.8625 122.25754Q38.8625 122.25754 39.503124 122.77316Q40.159374 123.27316 40.346874 124.22629L39.315624 124.38254Q39.175 123.75754 38.8 123.44504Q38.425 123.11691 37.89375 123.11691Q37.096874 123.11691 36.596874 123.69504Q36.096874 124.25754 36.096874 125.49191Q36.096874 126.75754 36.58125 127.32004Q37.065624 127.88254 37.83125 127.88254Q38.45625 127.88254 38.8625 127.50754Q39.284374 127.13254 39.409374 126.33566ZM41.346874 121.24191L41.346874 120.02316L42.409374 120.02316L42.409374 121.24191L41.346874 121.24191ZM41.346874 128.61691L41.346874 122.39816L42.409374 122.39816L42.409374 128.61691L41.346874 128.61691ZM43.95625 125.50754Q43.95625 123.77316 44.909374 122.94504Q45.70625 122.25754 46.8625 122.25754Q48.14375 122.25754 48.95625 123.10129Q49.784374 123.92941 49.784374 125.41379Q49.784374 126.61691 49.425 127.30441Q49.065624 127.99191 48.3625 128.38254Q47.675 128.75754 46.8625 128.75754Q45.565624 128.75754 44.753124 127.92941Q43.95625 127.08566 43.95625 125.50754ZM45.034374 125.50754Q45.034374 126.69504 45.55 127.28879Q46.08125 127.88254 46.8625 127.88254Q47.659374 127.88254 48.175 127.28879Q48.690624 126.69504 48.690624 125.47629Q48.690624 124.32004 48.159374 123.72629Q47.64375 123.13254 46.8625 123.13254Q46.08125 123.13254 45.55 123.72629Q45.034374 124.30441 45.034374 125.50754ZM46.284374 121.61691L47.065624 119.97629L48.45625 119.97629L47.159374 121.61691L46.284374 121.61691ZM51.346874 128.61691L51.346874 122.39816L52.284374 122.39816L52.284374 123.27316Q52.971874 122.25754 54.26875 122.25754Q54.83125 122.25754 55.3 122.46066Q55.784374 122.66379 56.01875 122.99191Q56.253124 123.32004 56.346874 123.75754Q56.39375 124.05441 56.39375 124.78879L56.39375 128.61691L55.346874 128.61691L55.346874 124.83566Q55.346874 124.17941 55.221874 123.86691Q55.096874 123.55441 54.784374 123.36691Q54.471874 123.16379 54.05 123.16379Q53.378124 123.16379 52.878124 123.60129Q52.39375 124.02316 52.39375 125.21066L52.39375 128.61691L51.346874 128.61691ZM67.6125 125.60129L68.7375 125.89816Q68.37813 127.28879 67.45625 128.02316Q66.53438 128.75754 65.19063 128.75754Q63.8 128.75754 62.925 128.19504Q62.05 127.63254 61.596874 126.57004Q61.14375 125.49191 61.14375 124.25754Q61.14375 122.91379 61.659374 121.91379Q62.175 120.91379 63.1125 120.39816Q64.06563 119.88254 65.20625 119.88254Q66.4875 119.88254 67.3625 120.53879Q68.25313 121.19504 68.59688 122.38254L67.47188 122.64816Q67.175 121.71066 66.59688 121.28879Q66.03438 120.85129 65.175 120.85129Q64.19063 120.85129 63.51875 121.33566Q62.8625 121.80441 62.58125 122.60129Q62.315624 123.39816 62.315624 124.25754Q62.315624 125.35129 62.628124 126.16379Q62.95625 126.97629 63.628124 127.38254Q64.3 127.78879 65.09688 127.78879Q66.05 127.78879 66.70625 127.24191Q67.37813 126.69504 67.6125 125.60129Z" fill-rule="nonzero"/><path fill="#9e9e9e" d="M23.01875 145.61691L21.971874 145.61691L21.971874 138.89816Q21.58125 139.25754 20.95625 139.63254Q20.346874 139.99191 19.8625 140.16379L19.8625 139.14816Q20.7375 138.72629 21.39375 138.14816Q22.065624 137.55441 22.346874 136.99191L23.01875 136.99191L23.01875 145.61691ZM26.1125 138.14816L26.1125 137.13254L31.675 137.13254L31.675 137.96066Q30.8625 138.83566 30.05 140.28879Q29.253124 141.72629 28.815624 143.25754Q28.4875 144.33566 28.409374 145.61691L27.315624 145.61691Q27.33125 144.60129 27.70625 143.16379Q28.096874 141.72629 28.8 140.39816Q29.51875 139.07004 30.33125 138.14816L26.1125 138.14816ZM33.6125 145.61691L33.6125 144.41379L34.815624 144.41379L34.815624 145.61691Q34.815624 146.27316 34.58125 146.67941Q34.346874 147.10129 33.846874 147.32004L33.55 146.86691Q33.878124 146.72629 34.034374 146.42941Q34.190624 146.14816 34.221874 145.61691L33.6125 145.61691ZM36.20625 143.63254L37.221874 143.53879Q37.346874 144.25754 37.70625 144.58566Q38.08125 144.89816 38.64375 144.89816Q39.128124 144.89816 39.4875 144.67941Q39.8625 144.44504 40.096874 144.08566Q40.33125 143.71066 40.4875 143.08566Q40.64375 142.44504 40.64375 141.78879Q40.64375 141.71066 40.64375 141.57004Q40.33125 142.07004 39.784374 142.39816Q39.2375 142.71066 38.596874 142.71066Q37.51875 142.71066 36.784374 141.94504Q36.05 141.16379 36.05 139.89816Q36.05 138.58566 36.815624 137.78879Q37.596874 136.99191 38.753124 136.99191Q39.58125 136.99191 40.26875 137.44504Q40.971874 137.89816 41.33125 138.74191Q41.690624 139.57004 41.690624 141.14816Q41.690624 142.78879 41.33125 143.77316Q40.9875 144.74191 40.26875 145.25754Q39.565624 145.75754 38.628124 145.75754Q37.6125 145.75754 36.971874 145.21066Q36.33125 144.64816 36.20625 143.63254ZM40.51875 139.83566Q40.51875 138.92941 40.034374 138.39816Q39.565624 137.86691 38.878124 137.86691Q38.175 137.86691 37.64375 138.44504Q37.128124 139.00754 37.128124 139.92941Q37.128124 140.74191 37.628124 141.25754Q38.128124 141.77316 38.846874 141.77316Q39.58125 141.77316 40.05 141.25754Q40.51875 140.74191 40.51875 139.83566ZM43.253124 139.08566Q43.253124 138.16379 43.70625 137.52316Q44.175 136.88254 45.05 136.88254Q45.8625 136.88254 46.39375 137.46066Q46.925 138.03879 46.925 139.14816Q46.925 140.24191 46.378124 140.83566Q45.846874 141.41379 45.065624 141.41379Q44.284374 141.41379 43.76875 140.83566Q43.253124 140.25754 43.253124 139.08566ZM45.08125 137.60129Q44.690624 137.60129 44.425 137.94504Q44.175 138.28879 44.175 139.19504Q44.175 140.02316 44.425 140.36691Q44.690624 140.69504 45.08125 140.69504Q45.4875 140.69504 45.7375 140.35129Q46.003124 140.00754 46.003124 139.11691Q46.003124 138.27316 45.7375 137.94504Q45.471874 137.60129 45.08125 137.60129ZM45.08125 145.92941L49.784374 136.88254L50.64375 136.88254L45.95625 145.92941L45.08125 145.92941ZM48.8 143.60129Q48.8 142.67941 49.253124 142.03879Q49.721874 141.39816 50.6125 141.39816Q51.425 141.39816 51.95625 141.97629Q52.4875 142.53879 52.4875 143.66379Q52.4875 144.75754 51.940624 145.35129Q51.409374 145.92941 50.6125 145.92941Q49.846874 145.92941 49.315624 145.35129Q48.8 144.77316 48.8 143.60129ZM50.64375 142.11691Q50.2375 142.11691 49.971874 142.46066Q49.721874 142.80441 49.721874 143.71066Q49.721874 144.52316 49.9875 144.86691Q50.253124 145.21066 50.64375 145.21066Q51.034374 145.21066 51.3 144.86691Q51.565624 144.52316 51.565624 143.61691Q51.565624 142.78879 51.3 142.46066Q51.034374 142.11691 50.64375 142.11691Z" fill-rule="nonzero"/><path stroke="#757575" stroke-width="1.0" stroke-linecap="butt" d="M18.55 133.11691L127.05 133.11691L150.29774 133.11691" fill-rule="nonzero"/><path fill="#9e9e9e" d="M152.29774 133.11691C152.29774 132.01234 151.40231 131.11691 150.29774 131.11691C149.19318 131.11691 148.29774 132.01234 148.29774 133.11691C148.29774 134.22148 149.19318 135.11691 150.29774 135.11691C151.40231 135.11691 152.29774 134.22148 152.29774 133.11691" fill-rule="nonzero"/><path fill="#1a1a1a" d="M19.128124 319.7084Q19.128124 317.56778 20.26875 316.36465Q21.425 315.1459 23.2375 315.1459Q24.440624 315.1459 25.39375 315.72403Q26.346874 316.28653 26.846874 317.30215Q27.346874 318.31778 27.346874 319.61465Q27.346874 320.91153 26.815624 321.94278Q26.284374 322.97403 25.315624 323.50528Q24.3625 324.03653 23.2375 324.03653Q22.01875 324.03653 21.065624 323.4584Q20.1125 322.86465 19.6125 321.86465Q19.128124 320.84903 19.128124 319.7084ZM20.3 319.72403Q20.3 321.28653 21.128124 322.17715Q21.971874 323.06778 23.2375 323.06778Q24.51875 323.06778 25.346874 322.17715Q26.175 321.2709 26.175 319.59903Q26.175 318.55215 25.815624 317.7709Q25.471874 316.98965 24.784374 316.56778Q24.096874 316.13028 23.253124 316.13028Q22.05 316.13028 21.175 316.9584Q20.3 317.78653 20.3 319.72403ZM28.346874 326.28653L28.346874 317.67715L29.3 317.67715L29.3 318.47403Q29.64375 318.00528 30.065624 317.7709Q30.503124 317.53653 31.1125 317.53653Q31.909374 317.53653 32.51875 317.94278Q33.128124 318.34903 33.425 319.09903Q33.7375 319.84903 33.7375 320.73965Q33.7375 321.69278 33.39375 322.4584Q33.065624 323.22403 32.409374 323.63028Q31.753124 324.03653 31.034374 324.03653Q30.503124 324.03653 30.08125 323.81778Q29.659374 323.5834 29.39375 323.25528L29.39375 326.28653L28.346874 326.28653ZM29.3 320.81778Q29.3 322.0209 29.784374 322.59903Q30.26875 323.16153 30.95625 323.16153Q31.659374 323.16153 32.159374 322.56778Q32.659374 321.97403 32.659374 320.72403Q32.659374 319.53653 32.175 318.9584Q31.690624 318.36465 31.003124 318.36465Q30.33125 318.36465 29.815624 318.98965Q29.3 319.61465 29.3 320.81778ZM39.409374 321.61465L40.440624 321.75528Q40.26875 322.81778 39.565624 323.42715Q38.8625 324.03653 37.846874 324.03653Q36.565624 324.03653 35.784374 323.2084Q35.01875 322.36465 35.01875 320.80215Q35.01875 319.80215 35.346874 319.05215Q35.690624 318.28653 36.3625 317.91153Q37.05 317.53653 37.8625 317.53653Q38.8625 317.53653 39.503124 318.05215Q40.159374 318.55215 40.346874 319.50528L39.315624 319.66153Q39.175 319.03653 38.8 318.72403Q38.425 318.3959 37.89375 318.3959Q37.096874 318.3959 36.596874 318.97403Q36.096874 319.53653 36.096874 320.7709Q36.096874 322.03653 36.58125 322.59903Q37.065624 323.16153 37.83125 323.16153Q38.45625 323.16153 38.8625 322.78653Q39.284374 322.41153 39.409374 321.61465ZM41.346874 316.5209L41.346874 315.30215L42.409374 315.30215L42.409374 316.5209L41.346874 316.5209ZM41.346874 323.8959L41.346874 317.67715L42.409374 317.67715L42.409374 323.8959L41.346874 323.8959ZM43.95625 320.78653Q43.95625 319.05215 44.909374 318.22403Q45.70625 317.53653 46.8625 317.53653Q48.14375 317.53653 48.95625 318.38028Q49.784374 319.2084 49.784374 320.69278Q49.784374 321.8959 49.425 322.5834Q49.065624 323.2709 48.3625 323.66153Q47.675 324.03653 46.8625 324.03653Q45.565624 324.03653 44.753124 323.2084Q43.95625 322.36465 43.95625 320.78653ZM45.034374 320.78653Q45.034374 321.97403 45.55 322.56778Q46.08125 323.16153 46.8625 323.16153Q47.659374 323.16153 48.175 322.56778Q48.690624 321.97403 48.690624 320.75528Q48.690624 319.59903 48.159374 319.00528Q47.64375 318.41153 46.8625 318.41153Q46.08125 318.41153 45.55 319.00528Q45.034374 319.5834 45.034374 320.78653ZM46.284374 316.8959L47.065624 315.25528L48.45625 315.25528L47.159374 316.8959L46.284374 316.8959ZM51.346874 323.8959L51.346874 317.67715L52.284374 317.67715L52.284374 318.55215Q52.971874 317.53653 54.26875 317.53653Q54.83125 317.53653 55.3 317.73965Q55.784374 317.94278 56.01875 318.2709Q56.253124 318.59903 56.346874 319.03653Q56.39375 319.3334 56.39375 320.06778L56.39375 323.8959L55.346874 323.8959L55.346874 320.11465Q55.346874 319.4584 55.221874 319.1459Q55.096874 318.8334 54.784374 318.6459Q54.471874 318.44278 54.05 318.44278Q53.378124 318.44278 52.878124 318.88028Q52.39375 319.30215 52.39375 320.48965L52.39375 323.8959L51.346874 323.8959ZM61.425 323.8959L61.425 315.30215L64.65938 315.30215Q65.64375 315.30215 66.2375 315.56778Q66.83125 315.8334 67.15938 316.38028Q67.50313 316.91153 67.50313 317.50528Q67.50313 318.05215 67.20625 318.53653Q66.90938 319.0209 66.3 319.31778Q67.08125 319.55215 67.4875 320.11465Q67.90938 320.66153 67.90938 321.41153Q67.90938 322.00528 67.65938 322.53653Q67.40938 323.05215 67.03438 323.3334Q66.65938 323.61465 66.08125 323.75528Q65.51875 323.8959 64.70625 323.8959L61.425 323.8959ZM62.565624 318.91153L64.425 318.91153Q65.175 318.91153 65.50313 318.81778Q65.94063 318.69278 66.15938 318.3959Q66.37813 318.0834 66.37813 317.63028Q66.37813 317.2084 66.175 316.88028Q65.97188 316.55215 65.58125 316.44278Q65.20625 316.31778 64.28438 316.31778L62.565624 316.31778L62.565624 318.91153ZM62.565624 322.88028L64.70625 322.88028Q65.25313 322.88028 65.47188 322.8334Q65.87813 322.7709 66.12813 322.61465Q66.39375 322.44278 66.56563 322.13028Q66.7375 321.81778 66.7375 321.41153Q66.7375 320.92715 66.4875 320.56778Q66.25313 320.2084 65.81563 320.06778Q65.37813 319.92715 64.55 319.92715L62.565624 319.92715L62.565624 322.88028Z" fill-rule="nonzero"/><path fill="#9e9e9e" d="M24.596874 339.88028L24.596874 340.8959L18.909374 340.8959Q18.909374 340.5209 19.034374 340.16153Q19.253124 339.5834 19.721874 339.0209Q20.20625 338.4584 21.1125 337.72403Q22.51875 336.56778 23.003124 335.8959Q23.503124 335.22403 23.503124 334.63028Q23.503124 334.00528 23.05 333.5834Q22.596874 333.1459 21.878124 333.1459Q21.1125 333.1459 20.659374 333.59903Q20.20625 334.05215 20.190624 334.86465L19.1125 334.75528Q19.221874 333.53653 19.940624 332.91153Q20.675 332.2709 21.909374 332.2709Q23.14375 332.2709 23.8625 332.9584Q24.58125 333.6459 24.58125 334.66153Q24.58125 335.17715 24.3625 335.67715Q24.159374 336.16153 23.659374 336.72403Q23.175 337.2709 22.05 338.22403Q21.096874 339.0209 20.815624 339.31778Q20.55 339.59903 20.378124 339.88028L24.596874 339.88028ZM27.675 336.23965Q27.01875 335.98965 26.690624 335.55215Q26.378124 335.09903 26.378124 334.48965Q26.378124 333.55215 27.05 332.91153Q27.7375 332.2709 28.846874 332.2709Q29.971874 332.2709 30.659374 332.92715Q31.346874 333.5834 31.346874 334.5209Q31.346874 335.11465 31.034374 335.55215Q30.721874 335.98965 30.08125 336.23965Q30.878124 336.48965 31.284374 337.06778Q31.690624 337.6459 31.690624 338.44278Q31.690624 339.53653 30.909374 340.28653Q30.14375 341.03653 28.8625 341.03653Q27.596874 341.03653 26.815624 340.28653Q26.034374 339.53653 26.034374 338.41153Q26.034374 337.56778 26.45625 337.00528Q26.89375 336.44278 27.675 336.23965ZM27.45625 334.44278Q27.45625 335.05215 27.846874 335.44278Q28.253124 335.8334 28.878124 335.8334Q29.4875 335.8334 29.878124 335.4584Q30.26875 335.06778 30.26875 334.50528Q30.26875 333.92715 29.8625 333.53653Q29.45625 333.13028 28.8625 333.13028Q28.253124 333.13028 27.846874 333.5209Q27.45625 333.91153 27.45625 334.44278ZM27.128124 338.41153Q27.128124 338.86465 27.33125 339.28653Q27.55 339.7084 27.971874 339.94278Q28.39375 340.17715 28.878124 340.17715Q29.628124 340.17715 30.1125 339.69278Q30.6125 339.2084 30.6125 338.4584Q30.6125 337.69278 30.1125 337.19278Q29.6125 336.69278 28.846874 336.69278Q28.096874 336.69278 27.6125 337.19278Q27.128124 337.67715 27.128124 338.41153ZM33.6125 340.8959L33.6125 339.69278L34.815624 339.69278L34.815624 340.8959Q34.815624 341.55215 34.58125 341.9584Q34.346874 342.38028 33.846874 342.59903L33.55 342.1459Q33.878124 342.00528 34.034374 341.7084Q34.190624 341.42715 34.221874 340.8959L33.6125 340.8959ZM41.51875 334.41153L40.471874 334.48965Q40.33125 333.86465 40.08125 333.5834Q39.64375 333.13028 39.01875 333.13028Q38.51875 333.13028 38.128124 333.41153Q37.64375 333.78653 37.346874 334.48965Q37.065624 335.17715 37.05 336.4584Q37.425 335.88028 37.971874 335.59903Q38.534374 335.31778 39.14375 335.31778Q40.190624 335.31778 40.925 336.09903Q41.675 336.88028 41.675 338.09903Q41.675 338.91153 41.315624 339.61465Q40.971874 340.30215 40.3625 340.67715Q39.753124 341.03653 38.9875 341.03653Q37.659374 341.03653 36.83125 340.06778Q36.003124 339.09903 36.003124 336.88028Q36.003124 334.38028 36.925 333.25528Q37.721874 332.2709 39.08125 332.2709Q40.096874 332.2709 40.7375 332.84903Q41.39375 333.41153 41.51875 334.41153ZM37.221874 338.11465Q37.221874 338.66153 37.440624 339.16153Q37.675 339.6459 38.08125 339.91153Q38.503124 340.17715 38.971874 340.17715Q39.628124 340.17715 40.1125 339.6459Q40.596874 339.09903 40.596874 338.17715Q40.596874 337.28653 40.1125 336.7709Q39.64375 336.25528 38.925 336.25528Q38.20625 336.25528 37.70625 336.7709Q37.221874 337.28653 37.221874 338.11465ZM43.253124 334.36465Q43.253124 333.44278 43.70625 332.80215Q44.175 332.16153 45.05 332.16153Q45.8625 332.16153 46.39375 332.73965Q46.925 333.31778 46.925 334.42715Q46.925 335.5209 46.378124 336.11465Q45.846874 336.69278 45.065624 336.69278Q44.284374 336.69278 43.76875 336.11465Q43.253124 335.53653 43.253124 334.36465ZM45.08125 332.88028Q44.690624 332.88028 44.425 333.22403Q44.175 333.56778 44.175 334.47403Q44.175 335.30215 44.425 335.6459Q44.690624 335.97403 45.08125 335.97403Q45.4875 335.97403 45.7375 335.63028Q46.003124 335.28653 46.003124 334.3959Q46.003124 333.55215 45.7375 333.22403Q45.471874 332.88028 45.08125 332.88028ZM45.08125 341.2084L49.784374 332.16153L50.64375 332.16153L45.95625 341.2084L45.08125 341.2084ZM48.8 338.88028Q48.8 337.9584 49.253124 337.31778Q49.721874 336.67715 50.6125 336.67715Q51.425 336.67715 51.95625 337.25528Q52.4875 337.81778 52.4875 338.94278Q52.4875 340.03653 51.940624 340.63028Q51.409374 341.2084 50.6125 341.2084Q49.846874 341.2084 49.315624 340.63028Q48.8 340.05215 48.8 338.88028ZM50.64375 337.3959Q50.2375 337.3959 49.971874 337.73965Q49.721874 338.0834 49.721874 338.98965Q49.721874 339.80215 49.9875 340.1459Q50.253124 340.48965 50.64375 340.48965Q51.034374 340.48965 51.3 340.1459Q51.565624 339.80215 51.565624 338.8959Q51.565624 338.06778 51.3 337.73965Q51.034374 337.3959 50.64375 337.3959Z" fill-rule="nonzero"/><path stroke="#757575" stroke-width="1.0" stroke-linecap="butt" d="M18.55 328.3959L127.05 328.3959L231.18495 328.3959" fill-rule="nonzero"/><path fill="#9e9e9e" d="M233.18495 328.3959C233.18495 327.29135 232.28952 326.3959 231.18495 326.3959C230.08038 326.3959 229.18495 327.29135 229.18495 328.3959C229.18495 329.5005 230.08038 330.3959 231.18495 330.3959C232.28952 330.3959 233.18495 329.5005 233.18495 328.3959" fill-rule="nonzero"/><path fill="#1a1a1a" d="M533.02814 141.52013Q533.02814 139.3795 534.16876 138.17638Q535.325 136.95763 537.1375 136.95763Q538.34064 136.95763 539.29376 137.53575Q540.2469 138.09825 540.7469 139.11388Q541.2469 140.1295 541.2469 141.42638Q541.2469 142.72325 540.71564 143.7545Q540.1844 144.78575 539.21564 145.317Q538.2625 145.84825 537.1375 145.84825Q535.91876 145.84825 534.96564 145.27013Q534.0125 144.67638 533.5125 143.67638Q533.02814 142.66075 533.02814 141.52013ZM534.2 141.53575Q534.2 143.09825 535.02814 143.98888Q535.8719 144.8795 537.1375 144.8795Q538.41876 144.8795 539.2469 143.98888Q540.075 143.08263 540.075 141.41075Q540.075 140.36388 539.71564 139.58263Q539.3719 138.80138 538.6844 138.3795Q537.9969 137.942 537.15314 137.942Q535.95 137.942 535.075 138.77013Q534.2 139.59825 534.2 141.53575ZM542.2469 148.09825L542.2469 139.48888L543.2 139.48888L543.2 140.28575Q543.54376 139.817 543.96564 139.58263Q544.40314 139.34825 545.0125 139.34825Q545.8094 139.34825 546.41876 139.7545Q547.02814 140.16075 547.325 140.91075Q547.6375 141.66075 547.6375 142.55138Q547.6375 143.5045 547.29376 144.27013Q546.96564 145.03575 546.3094 145.442Q545.65314 145.84825 544.9344 145.84825Q544.40314 145.84825 543.98126 145.6295Q543.5594 145.39513 543.29376 145.067L543.29376 148.09825L542.2469 148.09825ZM543.2 142.6295Q543.2 143.83263 543.6844 144.41075Q544.16876 144.97325 544.85626 144.97325Q545.5594 144.97325 546.0594 144.3795Q546.5594 143.78575 546.5594 142.53575Q546.5594 141.34825 546.075 140.77013Q545.59064 140.17638 544.90314 140.17638Q544.23126 140.17638 543.71564 140.80138Q543.2 141.42638 543.2 142.6295ZM553.3094 143.42638L554.34064 143.567Q554.16876 144.6295 553.46564 145.23888Q552.7625 145.84825 551.7469 145.84825Q550.46564 145.84825 549.6844 145.02013Q548.91876 144.17638 548.91876 142.61388Q548.91876 141.61388 549.2469 140.86388Q549.59064 140.09825 550.2625 139.72325Q550.95 139.34825 551.7625 139.34825Q552.7625 139.34825 553.40314 139.86388Q554.0594 140.36388 554.2469 141.317L553.21564 141.47325Q553.075 140.84825 552.7 140.53575Q552.325 140.20763 551.79376 140.20763Q550.9969 140.20763 550.4969 140.78575Q549.9969 141.34825 549.9969 142.58263Q549.9969 143.84825 550.48126 144.41075Q550.96564 144.97325 551.73126 144.97325Q552.35626 144.97325 552.7625 144.59825Q553.1844 144.22325 553.3094 143.42638ZM555.2469 138.33263L555.2469 137.11388L556.3094 137.11388L556.3094 138.33263L555.2469 138.33263ZM555.2469 145.70763L555.2469 139.48888L556.3094 139.48888L556.3094 145.70763L555.2469 145.70763ZM557.85626 142.59825Q557.85626 140.86388 558.8094 140.03575Q559.60626 139.34825 560.7625 139.34825Q562.04376 139.34825 562.85626 140.192Q563.6844 141.02013 563.6844 142.5045Q563.6844 143.70763 563.325 144.39513Q562.96564 145.08263 562.2625 145.47325Q561.575 145.84825 560.7625 145.84825Q559.46564 145.84825 558.65314 145.02013Q557.85626 144.17638 557.85626 142.59825ZM558.9344 142.59825Q558.9344 143.78575 559.45 144.3795Q559.98126 144.97325 560.7625 144.97325Q561.5594 144.97325 562.075 144.3795Q562.59064 143.78575 562.59064 142.567Q562.59064 141.41075 562.0594 140.817Q561.54376 140.22325 560.7625 140.22325Q559.98126 140.22325 559.45 140.817Q558.9344 141.39513 558.9344 142.59825ZM560.1844 138.70763L560.96564 137.067L562.35626 137.067L561.0594 138.70763L560.1844 138.70763ZM565.2469 145.70763L565.2469 139.48888L566.1844 139.48888L566.1844 140.36388Q566.8719 139.34825 568.16876 139.34825Q568.73126 139.34825 569.2 139.55138Q569.6844 139.7545 569.91876 140.08263Q570.15314 140.41075 570.2469 140.84825Q570.29376 141.14513 570.29376 141.8795L570.29376 145.70763L569.2469 145.70763L569.2469 141.92638Q569.2469 141.27013 569.1219 140.95763Q568.9969 140.64513 568.6844 140.45763Q568.3719 140.2545 567.95 140.2545Q567.27814 140.2545 566.77814 140.692Q566.29376 141.11388 566.29376 142.30138L566.29376 145.70763L565.2469 145.70763ZM574.4344 145.70763L577.73126 137.11388L578.95 137.11388L582.46564 145.70763L581.1844 145.70763L580.16876 143.09825L576.59064 143.09825L575.6375 145.70763L574.4344 145.70763ZM576.91876 142.17638L579.825 142.17638L578.9344 139.80138Q578.5125 138.72325 578.325 138.02013Q578.15314 138.84825 577.85626 139.66075L576.91876 142.17638Z" fill-rule="nonzero"/><path fill="#9e9e9e" d="M550.325 162.70763L550.325 160.64513L546.60626 160.64513L546.60626 159.67638L550.52814 154.11388L551.3875 154.11388L551.3875 159.67638L552.54376 159.67638L552.54376 160.64513L551.3875 160.64513L551.3875 162.70763L550.325 162.70763ZM550.325 159.67638L550.325 155.817L547.6375 159.67638L550.325 159.67638ZM559.4969 161.692L559.4969 162.70763L553.8094 162.70763Q553.8094 162.33263 553.9344 161.97325Q554.15314 161.39513 554.6219 160.83263Q555.10626 160.27013 556.0125 159.53575Q557.41876 158.3795 557.90314 157.70763Q558.40314 157.03575 558.40314 156.442Q558.40314 155.817 557.95 155.39513Q557.4969 154.95763 556.77814 154.95763Q556.0125 154.95763 555.5594 155.41075Q555.10626 155.86388 555.09064 156.67638L554.0125 156.567Q554.1219 155.34825 554.84064 154.72325Q555.575 154.08263 556.8094 154.08263Q558.04376 154.08263 558.7625 154.77013Q559.48126 155.45763 559.48126 156.47325Q559.48126 156.98888 559.2625 157.48888Q559.0594 157.97325 558.5594 158.53575Q558.075 159.08263 556.95 160.03575Q555.9969 160.83263 555.71564 161.1295Q555.45 161.41075 555.27814 161.692L559.4969 161.692ZM561.5125 162.70763L561.5125 161.5045L562.71564 161.5045L562.71564 162.70763Q562.71564 163.36388 562.48126 163.77013Q562.2469 164.192 561.7469 164.41075L561.45 163.95763Q561.77814 163.817 561.9344 163.52013Q562.09064 163.23888 562.1219 162.70763L561.5125 162.70763ZM564.10626 160.72325L565.1219 160.6295Q565.2469 161.34825 565.60626 161.67638Q565.98126 161.98888 566.54376 161.98888Q567.02814 161.98888 567.3875 161.77013Q567.7625 161.53575 567.9969 161.17638Q568.23126 160.80138 568.3875 160.17638Q568.54376 159.53575 568.54376 158.8795Q568.54376 158.80138 568.54376 158.66075Q568.23126 159.16075 567.6844 159.48888Q567.1375 159.80138 566.4969 159.80138Q565.41876 159.80138 564.6844 159.03575Q563.95 158.2545 563.95 156.98888Q563.95 155.67638 564.71564 154.8795Q565.4969 154.08263 566.65314 154.08263Q567.48126 154.08263 568.16876 154.53575Q568.8719 154.98888 569.23126 155.83263Q569.59064 156.66075 569.59064 158.23888Q569.59064 159.8795 569.23126 160.86388Q568.8875 161.83263 568.16876 162.34825Q567.46564 162.84825 566.52814 162.84825Q565.5125 162.84825 564.8719 162.30138Q564.23126 161.73888 564.10626 160.72325ZM568.41876 156.92638Q568.41876 156.02013 567.9344 155.48888Q567.46564 154.95763 566.77814 154.95763Q566.075 154.95763 565.54376 155.53575Q565.02814 156.09825 565.02814 157.02013Q565.02814 157.83263 565.52814 158.34825Q566.02814 158.86388 566.7469 158.86388Q567.48126 158.86388 567.95 158.34825Q568.41876 157.83263 568.41876 156.92638ZM571.15314 156.17638Q571.15314 155.2545 571.60626 154.61388Q572.075 153.97325 572.95 153.97325Q573.7625 153.97325 574.29376 154.55138Q574.825 155.1295 574.825 156.23888Q574.825 157.33263 574.27814 157.92638Q573.7469 158.5045 572.96564 158.5045Q572.1844 158.5045 571.66876 157.92638Q571.15314 157.34825 571.15314 156.17638ZM572.98126 154.692Q572.59064 154.692 572.325 155.03575Q572.075 155.3795 572.075 156.28575Q572.075 157.11388 572.325 157.45763Q572.59064 157.78575 572.98126 157.78575Q573.3875 157.78575 573.6375 157.442Q573.90314 157.09825 573.90314 156.20763Q573.90314 155.36388 573.6375 155.03575Q573.3719 154.692 572.98126 154.692ZM572.98126 163.02013L577.6844 153.97325L578.54376 153.97325L573.85626 163.02013L572.98126 163.02013ZM576.7 160.692Q576.7 159.77013 577.15314 159.1295Q577.6219 158.48888 578.5125 158.48888Q579.325 158.48888 579.85626 159.067Q580.3875 159.6295 580.3875 160.7545Q580.3875 161.84825 579.84064 162.442Q579.3094 163.02013 578.5125 163.02013Q577.7469 163.02013 577.21564 162.442Q576.7 161.86388 576.7 160.692ZM578.54376 159.20763Q578.1375 159.20763 577.8719 159.55138Q577.6219 159.89513 577.6219 160.80138Q577.6219 161.61388 577.8875 161.95763Q578.15314 162.30138 578.54376 162.30138Q578.9344 162.30138 579.2 161.95763Q579.46564 161.61388 579.46564 160.70763Q579.46564 159.8795 579.2 159.55138Q578.9344 159.20763 578.54376 159.20763Z" fill-rule="nonzero"/><path stroke="#757575" stroke-width="1.0" stroke-linecap="butt" d="M581.45 150.20763L472.95 150.20763L454.626 150.20763" fill-rule="nonzero"/><path fill="#9e9e9e" d="M456.626 150.20763C456.626 149.10306 455.73056 148.20763 454.626 148.20763C453.52142 148.20763 452.626 149.10306 452.626 150.20763C452.626 151.3122 453.52142 152.20763 454.626 152.20763C455.73056 152.20763 456.626 151.3122 456.626 150.20763" fill-rule="nonzero"/></svg>