<svg version="1.1" viewBox="0.0 0.0 600.0 371.0" fill="none" stroke="none" stroke-linecap="square" stroke-miterlimit="10" width="600" height="371" xmlns:xlink="http://www.w3.org/1999/xlink" xmlns="http://www.w3.org/2000/svg"><path fill="#ffffff" d="M0 0L600.0 0L600.0 371.0L0 371.0L0 0Z" fill-rule="nonzero"/><path fill="#4285f4" d="M300.0 18.55C361.64276 18.55 418.26968 52.51725 447.29065 106.901215C476.31158 161.28519 473.00372 227.23547 438.6866 278.4426L300.0 185.5Z" fill-rule="nonzero"/><path fill="#ea4335" d="M438.6866 278.4426C394.36206 344.58258 309.50052 370.21927 235.97012 339.68326C162.43973 309.14725 120.704254 230.9368 136.2728 152.85487C151.84134 74.77296 220.38112 18.55 300.0 18.55L300.0 185.5Z" fill-rule="nonzero"/><path fill="#1a1a1a" d="M19.14375 256.18445L20.175 256.3407Q20.2375 256.80945 20.534374 257.0282Q20.925 257.32507 21.596874 257.32507Q22.33125 257.32507 22.721874 257.0282Q23.128124 256.73132 23.26875 256.2157Q23.3625 255.88759 23.346874 254.85634Q22.659374 255.66884 21.628124 255.66884Q20.346874 255.66884 19.64375 254.74696Q18.940624 253.80946 18.940624 252.52821Q18.940624 251.63759 19.253124 250.88759Q19.58125 250.12196 20.190624 249.71571Q20.8 249.30946 21.628124 249.30946Q22.7375 249.30946 23.45625 250.20009L23.45625 249.45009L24.425 249.45009L24.425 254.82509Q24.425 256.2782 24.128124 256.88757Q23.83125 257.49695 23.190624 257.8407Q22.55 258.20007 21.6125 258.20007Q20.503124 258.20007 19.815624 257.70007Q19.128124 257.20007 19.14375 256.18445ZM20.01875 252.45009Q20.01875 253.66884 20.503124 254.23134Q20.9875 254.79384 21.721874 254.79384Q22.45625 254.79384 22.940624 254.23134Q23.440624 253.66884 23.440624 252.48134Q23.440624 251.34071 22.925 250.76259Q22.425 250.18446 21.70625 250.18446Q21.003124 250.18446 20.503124 250.76259Q20.01875 251.32509 20.01875 252.45009ZM26.33125 255.66884L26.33125 249.45009L27.284374 249.45009L27.284374 250.38759Q27.64375 249.73134 27.940624 249.52821Q28.253124 249.30946 28.628124 249.30946Q29.159374 249.30946 29.70625 249.63759L29.346874 250.62196Q28.95625 250.38759 28.58125 250.38759Q28.221874 250.38759 27.940624 250.60634Q27.675 250.80946 27.565624 251.18446Q27.378124 251.74696 27.378124 252.40321L27.378124 255.66884L26.33125 255.66884ZM34.409374 254.90321Q33.815624 255.40321 33.26875 255.60634Q32.7375 255.80946 32.1125 255.80946Q31.08125 255.80946 30.534374 255.30946Q29.9875 254.80946 29.9875 254.02821Q29.9875 253.57509 30.190624 253.20009Q30.39375 252.80946 30.7375 252.59071Q31.08125 252.35634 31.503124 252.24696Q31.8 252.15321 32.440624 252.07509Q33.70625 251.93446 34.315624 251.71571Q34.315624 251.49696 34.315624 251.45009Q34.315624 250.79384 34.01875 250.52821Q33.6125 250.18446 32.815624 250.18446Q32.08125 250.18446 31.721874 250.45009Q31.3625 250.70009 31.190624 251.35634L30.159374 251.21571Q30.3 250.55946 30.628124 250.15321Q30.95625 249.74696 31.565624 249.52821Q32.175 249.30946 32.971874 249.30946Q33.76875 249.30946 34.26875 249.49696Q34.76875 249.68446 35.003124 249.96571Q35.2375 250.24696 35.33125 250.68446Q35.378124 250.95009 35.378124 251.65321L35.378124 253.05946Q35.378124 254.52821 35.440624 254.91884Q35.51875 255.30946 35.721874 255.66884L34.6125 255.66884Q34.45625 255.34071 34.409374 254.90321ZM34.315624 252.54384Q33.7375 252.77821 32.596874 252.95009Q31.940624 253.04384 31.675 253.16884Q31.409374 253.27821 31.253124 253.49696Q31.1125 253.71571 31.1125 253.99696Q31.1125 254.41884 31.425 254.70009Q31.753124 254.98134 32.3625 254.98134Q32.971874 254.98134 33.440624 254.71571Q33.925 254.45009 34.14375 253.98134Q34.315624 253.62196 34.315624 252.93446L34.315624 252.54384ZM39.64375 254.73134L39.8 255.65321Q39.346874 255.74696 39.003124 255.74696Q38.425 255.74696 38.1125 255.57509Q37.8 255.38759 37.659374 255.09071Q37.534374 254.79384 37.534374 253.84071L37.534374 250.26259L36.76875 250.26259L36.76875 249.45009L37.534374 249.45009L37.534374 247.90321L38.58125 247.27821L38.58125 249.45009L39.64375 249.45009L39.64375 250.26259L38.58125 250.26259L38.58125 253.90321Q38.58125 254.35634 38.628124 254.48134Q38.690624 254.60634 38.815624 254.68446Q38.940624 254.76259 39.175 254.76259Q39.3625 254.76259 39.64375 254.73134ZM40.346874 248.29384L40.346874 247.07509L41.409374 247.07509L41.409374 248.29384L40.346874 248.29384ZM40.346874 255.66884L40.346874 249.45009L41.409374 249.45009L41.409374 255.66884L40.346874 255.66884ZM42.925 253.80946L43.95625 253.65321Q44.05 254.27821 44.440624 254.60634Q44.846874 254.93446 45.58125 254.93446Q46.3 254.93446 46.64375 254.65321Q47.003124 254.35634 47.003124 253.95009Q47.003124 253.59071 46.690624 253.38759Q46.471874 253.24696 45.6125 253.02821Q44.45625 252.73134 44.003124 252.52821Q43.565624 252.30946 43.33125 251.93446Q43.096874 251.55946 43.096874 251.09071Q43.096874 250.68446 43.284374 250.32509Q43.471874 249.96571 43.8 249.73134Q44.05 249.55946 44.471874 249.43446Q44.89375 249.30946 45.39375 249.30946Q46.1125 249.30946 46.659374 249.52821Q47.221874 249.73134 47.4875 250.09071Q47.753124 250.45009 47.846874 251.04384L46.815624 251.18446Q46.753124 250.71571 46.409374 250.45009Q46.08125 250.16884 45.45625 250.16884Q44.7375 250.16884 44.425 250.41884Q44.1125 250.65321 44.1125 250.98134Q44.1125 251.18446 44.2375 251.34071Q44.378124 251.51259 44.64375 251.62196Q44.8 251.68446 45.58125 251.88759Q46.70625 252.20009 47.14375 252.38759Q47.58125 252.57509 47.83125 252.93446Q48.08125 253.29384 48.08125 253.84071Q48.08125 254.37196 47.76875 254.84071Q47.471874 255.29384 46.89375 255.55946Q46.315624 255.80946 45.58125 255.80946Q44.3625 255.80946 43.721874 255.30946Q43.096874 254.79384 42.925 253.80946Z" fill-rule="nonzero"/><path fill="#9e9e9e" d="M24.51875 266.18448L23.471874 266.2626Q23.33125 265.6376 23.08125 265.35635Q22.64375 264.90323 22.01875 264.90323Q21.51875 264.90323 21.128124 265.18448Q20.64375 265.55948 20.346874 266.2626Q20.065624 266.9501 20.05 268.23135Q20.425 267.65323 20.971874 267.37198Q21.534374 267.09073 22.14375 267.09073Q23.190624 267.09073 23.925 267.87198Q24.675 268.65323 24.675 269.87198Q24.675 270.68448 24.315624 271.3876Q23.971874 272.0751 23.3625 272.4501Q22.753124 272.80948 21.9875 272.80948Q20.659374 272.80948 19.83125 271.84073Q19.003124 270.87198 19.003124 268.65323Q19.003124 266.15323 19.925 265.02823Q20.721874 264.04385 22.08125 264.04385Q23.096874 264.04385 23.7375 264.62198Q24.39375 265.18448 24.51875 266.18448ZM20.221874 269.8876Q20.221874 270.43448 20.440624 270.93448Q20.675 271.41885 21.08125 271.68448Q21.503124 271.9501 21.971874 271.9501Q22.628124 271.9501 23.1125 271.41885Q23.596874 270.87198 23.596874 269.9501Q23.596874 269.05948 23.1125 268.54385Q22.64375 268.02823 21.925 268.02823Q21.20625 268.02823 20.70625 268.54385Q20.221874 269.05948 20.221874 269.8876ZM26.05 270.41885L27.159374 270.3251Q27.284374 271.1376 27.721874 271.54385Q28.175 271.9501 28.815624 271.9501Q29.565624 271.9501 30.096874 271.37198Q30.628124 270.79385 30.628124 269.85635Q30.628124 268.9501 30.1125 268.43448Q29.6125 267.90323 28.784374 267.90323Q28.284374 267.90323 27.8625 268.1376Q27.45625 268.37198 27.221874 268.73135L26.2375 268.60635L27.065624 264.2001L31.346874 264.2001L31.346874 265.2001L27.909374 265.2001L27.45625 267.5126Q28.221874 266.96573 29.065624 266.96573Q30.190624 266.96573 30.95625 267.74698Q31.7375 268.52823 31.7375 269.7626Q31.7375 270.91885 31.065624 271.77823Q30.2375 272.80948 28.815624 272.80948Q27.64375 272.80948 26.89375 272.15323Q26.159374 271.49698 26.05 270.41885ZM33.6125 272.66885L33.6125 271.46573L34.815624 271.46573L34.815624 272.66885Q34.815624 273.3251 34.58125 273.73135Q34.346874 274.15323 33.846874 274.37198L33.55 273.91885Q33.878124 273.77823 34.034374 273.48135Q34.190624 273.2001 34.221874 272.66885L33.6125 272.66885ZM41.51875 266.18448L40.471874 266.2626Q40.33125 265.6376 40.08125 265.35635Q39.64375 264.90323 39.01875 264.90323Q38.51875 264.90323 38.128124 265.18448Q37.64375 265.55948 37.346874 266.2626Q37.065624 266.9501 37.05 268.23135Q37.425 267.65323 37.971874 267.37198Q38.534374 267.09073 39.14375 267.09073Q40.190624 267.09073 40.925 267.87198Q41.675 268.65323 41.675 269.87198Q41.675 270.68448 41.315624 271.3876Q40.971874 272.0751 40.3625 272.4501Q39.753124 272.80948 38.9875 272.80948Q37.659374 272.80948 36.83125 271.84073Q36.003124 270.87198 36.003124 268.65323Q36.003124 266.15323 36.925 265.02823Q37.721874 264.04385 39.08125 264.04385Q40.096874 264.04385 40.7375 264.62198Q41.39375 265.18448 41.51875 266.18448ZM37.221874 269.8876Q37.221874 270.43448 37.440624 270.93448Q37.675 271.41885 38.08125 271.68448Q38.503124 271.9501 38.971874 271.9501Q39.628124 271.9501 40.1125 271.41885Q40.596874 270.87198 40.596874 269.9501Q40.596874 269.05948 40.1125 268.54385Q39.64375 268.02823 38.925 268.02823Q38.20625 268.02823 37.70625 268.54385Q37.221874 269.05948 37.221874 269.8876ZM43.253124 266.1376Q43.253124 265.21573 43.70625 264.5751Q44.175 263.93448 45.05 263.93448Q45.8625 263.93448 46.39375 264.5126Q46.925 265.09073 46.925 266.2001Q46.925 267.29385 46.378124 267.8876Q45.846874 268.46573 45.065624 268.46573Q44.284374 268.46573 43.76875 267.8876Q43.253124 267.30948 43.253124 266.1376ZM45.08125 264.65323Q44.690624 264.65323 44.425 264.99698Q44.175 265.34073 44.175 266.24698Q44.175 267.0751 44.425 267.41885Q44.690624 267.74698 45.08125 267.74698Q45.4875 267.74698 45.7375 267.40323Q46.003124 267.05948 46.003124 266.16885Q46.003124 265.3251 45.7375 264.99698Q45.471874 264.65323 45.08125 264.65323ZM45.08125 272.98135L49.784374 263.93448L50.64375 263.93448L45.95625 272.98135L45.08125 272.98135ZM48.8 270.65323Q48.8 269.73135 49.253124 269.09073Q49.721874 268.4501 50.6125 268.4501Q51.425 268.4501 51.95625 269.02823Q52.4875 269.59073 52.4875 270.71573Q52.4875 271.80948 51.940624 272.40323Q51.409374 272.98135 50.6125 272.98135Q49.846874 272.98135 49.315624 272.40323Q48.8 271.8251 48.8 270.65323ZM50.64375 269.16885Q50.2375 269.16885 49.971874 269.5126Q49.721874 269.85635 49.721874 270.7626Q49.721874 271.5751 49.9875 271.91885Q50.253124 272.2626 50.64375 272.2626Q51.034374 272.2626 51.3 271.91885Q51.565624 271.5751 51.565624 270.66885Q51.565624 269.84073 51.3 269.5126Q51.034374 269.16885 50.64375 269.16885Z" fill-rule="nonzero"/><path stroke="#757575" stroke-width="1.0" stroke-linecap="butt" d="M18.55 260.16885L127.05 260.16885L160.07388 260.16885" fill-rule="nonzero"/><path fill="#9e9e9e" d="M162.07388 260.16885C162.07388 259.06427 161.17845 258.16885 160.07388 258.16885C158.96931 258.16885 158.07388 259.06427 158.07388 260.16885C158.07388 261.2734 158.96931 262.16885 160.07388 262.16885C161.17845 262.16885 162.07388 261.2734 162.07388 260.16885" fill-rule="nonzero"/><path fill="#1a1a1a" d="M540.2469 108.72178L540.2469 100.112404L541.2 100.112404L541.2 100.90928Q541.54376 100.44053 541.96564 100.206154Q542.40314 99.97178 543.0125 99.97178Q543.8094 99.97178 544.41876 100.37803Q545.02814 100.78428 545.325 101.53428Q545.6375 102.28428 545.6375 103.174904Q545.6375 104.12803 545.29376 104.893654Q544.96564 105.65928 544.3094 106.06553Q543.65314 106.47178 542.9344 106.47178Q542.40314 106.47178 541.98126 106.25303Q541.5594 106.018654 541.29376 105.69053L541.29376 108.72178L540.2469 108.72178ZM541.2 103.25303Q541.2 104.456154 541.6844 105.03428Q542.16876 105.59678 542.85626 105.59678Q543.5594 105.59678 544.0594 105.00303Q544.5594 104.40928 544.5594 103.15928Q544.5594 101.97178 544.075 101.393654Q543.59064 100.799904 542.90314 100.799904Q542.23126 100.799904 541.71564 101.424904Q541.2 102.049904 541.2 103.25303ZM551.3094 105.56553Q550.71564 106.06553 550.16876 106.268654Q549.6375 106.47178 549.0125 106.47178Q547.98126 106.47178 547.4344 105.97178Q546.8875 105.47178 546.8875 104.69053Q546.8875 104.237404 547.09064 103.862404Q547.29376 103.47178 547.6375 103.25303Q547.98126 103.018654 548.40314 102.90928Q548.7 102.81553 549.34064 102.737404Q550.60626 102.59678 551.21564 102.37803Q551.21564 102.15928 551.21564 102.112404Q551.21564 101.456154 550.91876 101.19053Q550.5125 100.84678 549.71564 100.84678Q548.98126 100.84678 548.6219 101.112404Q548.2625 101.362404 548.09064 102.018654L547.0594 101.87803Q547.2 101.22178 547.52814 100.81553Q547.85626 100.40928 548.46564 100.19053Q549.075 99.97178 549.8719 99.97178Q550.66876 99.97178 551.16876 100.15928Q551.66876 100.34678 551.90314 100.62803Q552.1375 100.90928 552.23126 101.34678Q552.27814 101.612404 552.27814 102.31553L552.27814 103.72178Q552.27814 105.19053 552.34064 105.581154Q552.41876 105.97178 552.6219 106.331154L551.5125 106.331154Q551.35626 106.00303 551.3094 105.56553ZM551.21564 103.206154Q550.6375 103.44053 549.4969 103.612404Q548.84064 103.706154 548.575 103.831154Q548.3094 103.94053 548.15314 104.15928Q548.0125 104.37803 548.0125 104.65928Q548.0125 105.081154 548.325 105.362404Q548.65314 105.643654 549.2625 105.643654Q549.8719 105.643654 550.34064 105.37803Q550.825 105.112404 551.04376 104.643654Q551.21564 104.28428 551.21564 103.59678L551.21564 103.206154ZM554.04376 106.84678L555.075 107.00303Q555.1375 107.47178 555.4344 107.69053Q555.825 107.987404 556.4969 107.987404Q557.23126 107.987404 557.6219 107.69053Q558.02814 107.393654 558.16876 106.87803Q558.2625 106.549904 558.2469 105.518654Q557.5594 106.331154 556.52814 106.331154Q555.2469 106.331154 554.54376 105.40928Q553.84064 104.47178 553.84064 103.19053Q553.84064 102.299904 554.15314 101.549904Q554.48126 100.78428 555.09064 100.37803Q555.7 99.97178 556.52814 99.97178Q557.6375 99.97178 558.35626 100.862404L558.35626 100.112404L559.325 100.112404L559.325 105.487404Q559.325 106.94053 559.02814 107.549904Q558.73126 108.15928 558.09064 108.50303Q557.45 108.862404 556.5125 108.862404Q555.40314 108.862404 554.71564 108.362404Q554.02814 107.862404 554.04376 106.84678ZM554.91876 103.112404Q554.91876 104.331154 555.40314 104.893654Q555.8875 105.456154 556.6219 105.456154Q557.35626 105.456154 557.84064 104.893654Q558.34064 104.331154 558.34064 103.143654Q558.34064 102.00303 557.825 101.424904Q557.325 100.84678 556.60626 100.84678Q555.90314 100.84678 555.40314 101.424904Q554.91876 101.987404 554.91876 103.112404ZM565.3094 105.56553Q564.71564 106.06553 564.16876 106.268654Q563.6375 106.47178 563.0125 106.47178Q561.98126 106.47178 561.4344 105.97178Q560.8875 105.47178 560.8875 104.69053Q560.8875 104.237404 561.09064 103.862404Q561.29376 103.47178 561.6375 103.25303Q561.98126 103.018654 562.40314 102.90928Q562.7 102.81553 563.34064 102.737404Q564.60626 102.59678 565.21564 102.37803Q565.21564 102.15928 565.21564 102.112404Q565.21564 101.456154 564.91876 101.19053Q564.5125 100.84678 563.71564 100.84678Q562.98126 100.84678 562.6219 101.112404Q562.2625 101.362404 562.09064 102.018654L561.0594 101.87803Q561.2 101.22178 561.52814 100.81553Q561.85626 100.40928 562.46564 100.19053Q563.075 99.97178 563.8719 99.97178Q564.66876 99.97178 565.16876 100.15928Q565.66876 100.34678 565.90314 100.62803Q566.1375 100.90928 566.23126 101.34678Q566.27814 101.612404 566.27814 102.31553L566.27814 103.72178Q566.27814 105.19053 566.34064 105.581154Q566.41876 105.97178 566.6219 106.331154L565.5125 106.331154Q565.35626 106.00303 565.3094 105.56553ZM565.21564 103.206154Q564.6375 103.44053 563.4969 103.612404Q562.84064 103.706154 562.575 103.831154Q562.3094 103.94053 562.15314 104.15928Q562.0125 104.37803 562.0125 104.65928Q562.0125 105.081154 562.325 105.362404Q562.65314 105.643654 563.2625 105.643654Q563.8719 105.643654 564.34064 105.37803Q564.825 105.112404 565.04376 104.643654Q565.21564 104.28428 565.21564 103.59678L565.21564 103.206154ZM572.27814 106.331154L572.27814 105.549904Q571.6844 106.47178 570.54376 106.47178Q569.79376 106.47178 569.16876 106.06553Q568.54376 105.643654 568.2 104.90928Q567.85626 104.174904 567.85626 103.22178Q567.85626 102.299904 568.16876 101.53428Q568.48126 100.768654 569.10626 100.37803Q569.73126 99.97178 570.4969 99.97178Q571.0594 99.97178 571.4969 100.206154Q571.9344 100.44053 572.21564 100.81553L572.21564 97.737404L573.2625 97.737404L573.2625 106.331154L572.27814 106.331154ZM568.95 103.22178Q568.95 104.424904 569.45 105.018654Q569.95 105.59678 570.6375 105.59678Q571.325 105.59678 571.8094 105.03428Q572.29376 104.47178 572.29376 103.31553Q572.29376 102.03428 571.79376 101.44053Q571.3094 100.84678 570.59064 100.84678Q569.8875 100.84678 569.41876 101.424904Q568.95 101.987404 568.95 103.22178ZM579.3094 105.56553Q578.71564 106.06553 578.16876 106.268654Q577.6375 106.47178 577.0125 106.47178Q575.98126 106.47178 575.4344 105.97178Q574.8875 105.47178 574.8875 104.69053Q574.8875 104.237404 575.09064 103.862404Q575.29376 103.47178 575.6375 103.25303Q575.98126 103.018654 576.40314 102.90928Q576.7 102.81553 577.34064 102.737404Q578.60626 102.59678 579.21564 102.37803Q579.21564 102.15928 579.21564 102.112404Q579.21564 101.456154 578.91876 101.19053Q578.5125 100.84678 577.71564 100.84678Q576.98126 100.84678 576.6219 101.112404Q576.2625 101.362404 576.09064 102.018654L575.0594 101.87803Q575.2 101.22178 575.52814 100.81553Q575.85626 100.40928 576.46564 100.19053Q577.075 99.97178 577.8719 99.97178Q578.66876 99.97178 579.16876 100.15928Q579.66876 100.34678 579.90314 100.62803Q580.1375 100.90928 580.23126 101.34678Q580.27814 101.612404 580.27814 102.31553L580.27814 103.72178Q580.27814 105.19053 580.34064 105.581154Q580.41876 105.97178 580.6219 106.331154L579.5125 106.331154Q579.35626 106.00303 579.3094 105.56553ZM579.21564 103.206154Q578.6375 103.44053 577.4969 103.612404Q576.84064 103.706154 576.575 103.831154Q576.3094 103.94053 576.15314 104.15928Q576.0125 104.37803 576.0125 104.65928Q576.0125 105.081154 576.325 105.362404Q576.65314 105.643654 577.2625 105.643654Q577.8719 105.643654 578.34064 105.37803Q578.825 105.112404 579.04376 104.643654Q579.21564 104.28428 579.21564 103.59678L579.21564 103.206154Z" fill-rule="nonzero"/><path fill="#9e9e9e" d="M546.95 121.06553L548.0125 120.924904Q548.1844 121.81553 548.6219 122.22178Q549.0594 122.612404 549.6844 122.612404Q550.4344 122.612404 550.95 122.09678Q551.46564 121.581154 551.46564 120.81553Q551.46564 120.09678 550.98126 119.62803Q550.5125 119.143654 549.77814 119.143654Q549.48126 119.143654 549.02814 119.268654L549.15314 118.331154Q549.2625 118.34678 549.325 118.34678Q549.9969 118.34678 550.52814 118.00303Q551.075 117.643654 551.075 116.90928Q551.075 116.331154 550.6844 115.956154Q550.29376 115.56553 549.66876 115.56553Q549.0594 115.56553 548.6375 115.956154Q548.23126 116.34678 548.1219 117.112404L547.0594 116.924904Q547.2469 115.87803 547.9344 115.299904Q548.6219 114.706154 549.6375 114.706154Q550.34064 114.706154 550.9344 115.018654Q551.52814 115.31553 551.84064 115.831154Q552.15314 116.34678 552.15314 116.94053Q552.15314 117.487404 551.85626 117.956154Q551.5594 118.40928 550.98126 118.674904Q551.73126 118.84678 552.15314 119.40928Q552.575 119.956154 552.575 120.799904Q552.575 121.924904 551.7469 122.706154Q550.9344 123.487404 549.6844 123.487404Q548.5594 123.487404 547.8094 122.81553Q547.0594 122.12803 546.95 121.06553ZM557.325 123.331154L557.325 121.268654L553.60626 121.268654L553.60626 120.299904L557.52814 114.737404L558.3875 114.737404L558.3875 120.299904L559.54376 120.299904L559.54376 121.268654L558.3875 121.268654L558.3875 123.331154L557.325 123.331154ZM557.325 120.299904L557.325 116.44053L554.6375 120.299904L557.325 120.299904ZM561.5125 123.331154L561.5125 122.12803L562.71564 122.12803L562.71564 123.331154Q562.71564 123.987404 562.48126 124.393654Q562.2469 124.81553 561.7469 125.03428L561.45 124.581154Q561.77814 124.44053 561.9344 124.143654Q562.09064 123.862404 562.1219 123.331154L561.5125 123.331154ZM567.325 123.331154L567.325 121.268654L563.60626 121.268654L563.60626 120.299904L567.52814 114.737404L568.3875 114.737404L568.3875 120.299904L569.54376 120.299904L569.54376 121.268654L568.3875 121.268654L568.3875 123.331154L567.325 123.331154ZM567.325 120.299904L567.325 116.44053L564.6375 120.299904L567.325 120.299904ZM571.15314 116.799904Q571.15314 115.87803 571.60626 115.237404Q572.075 114.59678 572.95 114.59678Q573.7625 114.59678 574.29376 115.174904Q574.825 115.75303 574.825 116.862404Q574.825 117.956154 574.27814 118.549904Q573.7469 119.12803 572.96564 119.12803Q572.1844 119.12803 571.66876 118.549904Q571.15314 117.97178 571.15314 116.799904ZM572.98126 115.31553Q572.59064 115.31553 572.325 115.65928Q572.075 116.00303 572.075 116.90928Q572.075 117.737404 572.325 118.081154Q572.59064 118.40928 572.98126 118.40928Q573.3875 118.40928 573.6375 118.06553Q573.90314 117.72178 573.90314 116.831154Q573.90314 115.987404 573.6375 115.65928Q573.3719 115.31553 572.98126 115.31553ZM572.98126 123.643654L577.6844 114.59678L578.54376 114.59678L573.85626 123.643654L572.98126 123.643654ZM576.7 121.31553Q576.7 120.393654 577.15314 119.75303Q577.6219 119.112404 578.5125 119.112404Q579.325 119.112404 579.85626 119.69053Q580.3875 120.25303 580.3875 121.37803Q580.3875 122.47178 579.84064 123.06553Q579.3094 123.643654 578.5125 123.643654Q577.7469 123.643654 577.21564 123.06553Q576.7 122.487404 576.7 121.31553ZM578.54376 119.831154Q578.1375 119.831154 577.8719 120.174904Q577.6219 120.518654 577.6219 121.424904Q577.6219 122.237404 577.8875 122.581154Q578.15314 122.924904 578.54376 122.924904Q578.9344 122.924904 579.2 122.581154Q579.46564 122.237404 579.46564 121.331154Q579.46564 120.50303 579.2 120.174904Q578.9344 119.831154 578.54376 119.831154Z" fill-rule="nonzero"/><path stroke="#757575" stroke-width="1.0" stroke-linecap="butt" d="M581.45 110.831154L472.95 110.831154L439.92612 110.831154" fill-rule="nonzero"/><path fill="#9e9e9e" d="M441.92612 110.831154C441.92612 109.726585 441.03067 108.831154 439.92612 108.831154C438.82153 108.831154 437.92612 109.726585 437.92612 110.831154C437.92612 111.93572 438.82153 112.831154 439.92612 112.831154C441.03067 112.831154 441.92612 111.93572 441.92612 110.831154" fill-rule="nonzero"/></svg>